<?xml version="1.0" encoding="utf-8"?><svg id="Layer_1" data-name="Layer 1" xmlns="http://www.w3.org/2000/svg" xmlns:xlink="http://www.w3.org/1999/xlink" viewBox="0 0 1044.9 568.7"><defs><radialGradient id="radial-gradient" cx="944.52" cy="281.8" r="760.12" gradientTransform="matrix(1, 0, 0, -1, 0, 563.4)" gradientUnits="userSpaceOnUse"><stop offset="0.01" stop-color="#fff"/><stop offset="0.03" stop-color="#cbffff"/><stop offset="0.06" stop-color="#96ffff"/><stop offset="0.08" stop-color="#68ffff"/><stop offset="0.11" stop-color="#43ffff"/><stop offset="0.14" stop-color="#25ffff"/><stop offset="0.16" stop-color="#1ff"/><stop offset="0.19" stop-color="#04ffff"/><stop offset="0.22" stop-color="aqua"/><stop offset="1" stop-color="blue" stop-opacity="0"/></radialGradient></defs><title>Disney+ Brand Logo</title><path d="M737.8,367.4c-14.4,3.3-52.3,5.2-52.3,5.2l-4.8,15s18.9-1.6,32.7-.2c0,0,4.5-.5,5,5.1a86.46,86.46,0,0,1-.4,10.8s-.3,3.4-5.1,4.2c-5.2.9-40.8,2.2-40.8,2.2l-5.8,19.5s-2.1,4.5,2.7,3.2c4.5-1.2,41.8-8.2,46.7-7.2,5.2,1.3,11,8.2,9.3,14.6-2,7.8-39.2,31.6-61.9,29.9,0,0-11.9.8-22-15.3-9.4-15.3,3.6-44.4,3.6-44.4s-5.9-13.6-1.6-18.1c0,0,2.6-2.3,10-2.9l9.1-18.9s-10.4.7-16.6-6.9c-5.8-7.3-6.2-10.6-1.8-12.6,4.7-2.3,48-10.2,77.8-9.2,0,0,10.4-1,19.3,17-.1,0,4.3,7.3-3.1,9ZM625.7,440c-3.8,9-13.9,18.6-26.4,12.6s-32.1-46.3-32.1-46.3-7.5-15-8.9-14.7c0,0-1.6-2.9-2.6,13.5s.2,48.3-6.3,53.3c-6.2,5-13.7,3-17.6-2.9-3.5-5.8-5-19.6-3.1-43.8,2.3-24.2,7.9-50,15.1-58.1s13-2.2,15.2-.1c0,0,9.6,8.7,25.5,34.3l2.8,4.7s14.4,24.2,15.9,24.1c0,0,1.2,1.1,2.2.3,1.5-.4.9-8.2.9-8.2s-3-26.3-16.1-70.9c0,0-2-5.6-.6-10.8s6.6-2.8,6.6-2.8,20.4,10.2,30.2,43.4c9.7,33.5,3.1,63.4-.7,72.4ZM525.5,354.7c-1.7,3.4-2.7,8.3-11.3,9.6,0,0-82.3,5.6-86.2,11.4,0,0-2.9,3.4,1.6,4.4s23.1,3.4,32.1,3.9c9.6.1,42,.4,53.6,14.9,0,0,6.9,6.9,6.6,22.5-.3,16-3.1,21.6-9.3,27.4-6.5,5.4-62.3,30.4-98.3-8,0,0-16.6-18.5,5.7-32.5,0,0,16.1-9.7,57,1.7,0,0,12.4,4.5,11.8,9-.7,4.8-10.2,9.9-24,9.6-13.4-.4-23.2-6.8-21.3-5.8,1.8.7-14.4-7.8-19.4-2-5,5.3-3.8,8.6,1.1,11.9,12.5,7.1,60.8,4.6,75.2-11.4,0,0,5.7-6.5-3-11.8-8.7-5-33.6-8-43.3-8.5-9.3-.5-43.9.1-48.9-9.1,0,0-5-6.2.5-23.8,5.8-18.4,46.1-25.5,63.5-27.1,0,0,47.9-1.7,56.7,8.1a7.52,7.52,0,0,1-.4,5.6Zm-136,107.9c-5.8,4.3-18.1,2.4-21.6-2.4-3.5-4.3-4.7-21.4-4-48.2.7-27.1,1.3-60.7,7.1-66,6.2-5.4,10-.7,12.4,3,2.6,3.6,5.7,7.6,6.4,16.1s2.6,53.1,2.6,53.1,2.6,40.2-2.9,44.4ZM402,318.8c-16.9,5.6-28.5,3.7-38.3-.5-4.3,7.5-6.8,9.8-10.1,10.3-4.8.5-9.1-7.2-9.9-9.7-.8-1.9-3.1-5.1-.3-12.7-9.6-8.6-10.3-20.2-8.7-28,2.4-9,18.6-43.2,67.9-47.2,0,0,24.1-1.8,28.2,11.1h.7s23.4.1,22.9,20.9c-.3,20.9-26,46.9-52.4,55.8Zm-46-46.3c-5,8-5.2,12.8-2.9,16.1,5.7-8.7,16.1-22.4,31.4-32.8-11.8,1-21.7,6.1-28.5,16.7Zm68.1-13.4c-15.5,2.3-39.5,23.1-50.9,40.1,17.5,3.2,48.4,2,62.1-25.9-.1,0,6.5-17.3-11.2-14.2ZM844.9,420.2c-9.3,16.2-35.4,50-70.2,42.1-11.5,27.9-21.1,56-26.6,98.2,0,0-1.2,8.2-8,5.3-6.7-2.4-17.9-13.6-20.1-29.1-2.4-20.4,6.7-54.9,25.2-94.4-5.4-8.8-9.1-21.4-5.9-39.3,0,0,4.7-33.2,38-63.2,0,0,4-3.5,6.3-2.4,2.6,1.1,1.4,11.9-.7,17.1s-17,31-17,31-9.3,17.4-6.7,31.1c17.5-26.9,57.3-81.2,82-64.1,8.3,5.9,12.1,18.8,12.1,32.7-.1,12.3-3,25.3-8.4,35Zm-7.2-42.6s-1.4-10.7-11.8,1.1c-9,9.9-25.2,28.6-38.3,53.9,13.7-1.5,26.9-9,30.9-12.8,6.5-5.8,21.6-21.4,19.2-42.2ZM352.2,391.2c-1.9,24.2-11.2,64.9-77.1,85-43.5,13.1-84.6,6.8-107,1.1-.5,8.9-1.5,12.7-2.9,14.2-1.9,1.9-16.1,10.1-23.9-1.5-3.5-5.5-5.3-15.5-6.3-24.4C84.6,442.4,61.4,409,60.5,407.5c-1.1-1.1-12.6-13.1-1.1-27.8,10.8-13.3,46.1-26.6,77.9-32,1.1-27.2,4.3-47.7,8.1-57.1,4.6-10.9,10.4-1.1,15.4,6.3,4.2,5.5,6.7,29.2,6.9,48.1,20.8-1,33.1.5,56.3,4.7,30.2,5.5,50.4,20.9,48.6,38.4-1.3,17.2-17.1,24.3-23.1,24.8-6.3.5-16.1-4-16.1-4-6.7-3.2-.5-6,7.6-9.5,8.8-4.3,6.8-8.7,6.8-8.7-3.3-9.6-42.5-16.3-81.5-16.3-.2,21.5.9,57.2,1.4,78,27.3,5.2,47.7,4.2,47.7,4.2S315,453.8,318,390.2,218.7,265.4,143,246c-75.6-19.8-118.4-6-122.1-4.1-4,2-.3,2.6-.3,2.6a71.47,71.47,0,0,1,11.2,3c7.5,2.4,1.7,6.3,1.7,6.3-12.9,4.1-27.4,1.5-30.2-4.4s1.9-11.2,7.3-18.8c5.4-8,11.3-7.7,11.3-7.7,93.5-32.4,207.4,26.2,207.4,26.2C336,303.2,354.2,366.6,352.2,391.2ZM70,387.9c-10.6,5.2-3.3,12.7-3.3,12.7,19.9,21.4,44.4,34.8,67.7,43.1,2.7-36.9,2.3-49.9,2.6-68.5-36.4,2.5-57.4,8.3-67,12.7Z" fill="#fff"/><path d="M1042.9,380.3v13.2a5.16,5.16,0,0,1-5.2,5.2H974.8c0,3.3.1,6.2.1,8.9a480,480,0,0,1-2.7,53.3,5.19,5.19,0,0,1-5.1,4.7H953.5a4.84,4.84,0,0,1-3.6-1.6,4.75,4.75,0,0,1-1.2-3.8,470.56,470.56,0,0,0,2.8-52.6c0-2.8,0-5.7-.1-8.9H889.2a5.16,5.16,0,0,1-5.2-5.2V380.3a5.16,5.16,0,0,1,5.2-5.2h61.3a460.85,460.85,0,0,0-8.1-63.2,4.6,4.6,0,0,1,.9-3.6,4.22,4.22,0,0,1,3.3-1.6h14.7a4.81,4.81,0,0,1,4.7,3.9,507.25,507.25,0,0,1,8,64.5h63.7A5.29,5.29,0,0,1,1042.9,380.3Z" fill="#fff"/><path d="M202.2,206h-.1m-.7.1c-.3,0-.6-.1-.9-.1a2.77,2.77,0,0,0,.9.1h0Zm0,0c-.3,0-.6-.1-.9-.1a2.77,2.77,0,0,0,.9.1h0Z" fill="none"/><path d="M957.3,275.6a438.92,438.92,0,0,0-771.9-78,5.12,5.12,0,0,0-.6,4.5,4.88,4.88,0,0,0,3.2,3.2l11.4,3.9a7.47,7.47,0,0,0,2,.3,6.59,6.59,0,0,0,5.3-2.8A415.52,415.52,0,0,1,550.6,24.5,416.08,416.08,0,0,1,933.7,278.4a6,6,0,0,0,5.5,3.7h13.6a4.58,4.58,0,0,0,3.9-2.1A4.38,4.38,0,0,0,957.3,275.6ZM201.4,206.1a2.92,2.92,0,0,1-.9-.2,2.92,2.92,0,0,0,.9.2h0Zm735,74.2a4.05,4.05,0,0,0,.9.5C937,280.6,936.7,280.5,936.4,280.3Z" fill="url(#radial-gradient)"/></svg>