<?xml version="1.0" encoding="utf-8"?>
<!-- Generator: Adobe Illustrator 16.0.3, SVG Export Plug-In . SVG Version: 6.00 Build 0)  -->
<!DOCTYPE svg PUBLIC "-//W3C//DTD SVG 1.1//EN" "http://www.w3.org/Graphics/SVG/1.1/DTD/svg11.dtd">
<svg version="1.1" id="Layer_1" xmlns="http://www.w3.org/2000/svg" xmlns:xlink="http://www.w3.org/1999/xlink" x="0px" y="0px"
	 width="500px" height="380px" viewBox="0 0 500 380" enable-background="new 0 0 500 380" xml:space="preserve">
<path fill="#CCCCCC" d="M500,375.102c0,2.709-2.241,4.898-5.005,4.898H5.004C2.241,380,0,377.811,0,375.102V4.898
	C0,2.189,2.241,0,5.004,0h489.991C497.759,0,500,2.189,500,4.898V375.102z"/>
<g>
	<path fill="#333333" d="M192.721,24.404c1.959-0.32,4.879-0.56,8.119-0.56c3.999,0,6.799,0.6,8.718,2.12
		c1.6,1.28,2.48,3.159,2.48,5.639c0,3.439-2.44,5.799-4.759,6.639v0.12c1.879,0.76,2.919,2.56,3.599,5.039
		c0.84,3.04,1.68,6.559,2.2,7.599h-6.239c-0.44-0.76-1.08-2.959-1.88-6.279c-0.72-3.359-1.879-4.279-4.359-4.319h-1.839V51h-6.039
		V24.404z M198.76,36.002h2.399c3.04,0,4.839-1.52,4.839-3.879c0-2.479-1.68-3.719-4.479-3.759c-1.479,0-2.319,0.12-2.759,0.2
		V36.002z"/>
	<path fill="#333333" d="M223.079,44.081L221.159,51h-6.319l8.239-26.956h7.999L239.436,51h-6.559l-2.08-6.919H223.079z
		 M229.917,39.522l-1.68-5.719c-0.48-1.6-0.96-3.599-1.36-5.199h-0.08c-0.4,1.6-0.8,3.64-1.24,5.199l-1.6,5.719H229.917z"/>
	<path fill="#333333" d="M249.158,24.044V51h-6.119V24.044H249.158z"/>
	<path fill="#333333" d="M254.439,24.404c2.239-0.36,5.158-0.56,8.238-0.56c5.119,0,8.438,0.92,11.038,2.879
		c2.8,2.08,4.56,5.399,4.56,10.158c0,5.159-1.881,8.719-4.48,10.918c-2.839,2.359-7.158,3.479-12.438,3.479
		c-3.159,0-5.398-0.2-6.918-0.4V24.404z M260.558,46.401c0.521,0.12,1.36,0.12,2.12,0.12c5.52,0.04,9.118-2.999,9.118-9.438
		c0.04-5.599-3.239-8.559-8.479-8.559c-1.36,0-2.239,0.12-2.76,0.24V46.401z"/>
	<path fill="#333333" d="M297.157,30.403h-0.08l-4.959,2.36l-1-4.56l6.879-3.199h5.039V51h-5.879V30.403z"/>
	<path fill="#333333" d="M204.424,71.327c0-1.2-0.024-2.184-0.096-3.145h1.848l0.096,1.873h0.072
		c0.648-1.104,1.728-2.136,3.648-2.136c1.584,0,2.784,0.96,3.288,2.328h0.048c0.36-0.648,0.816-1.152,1.296-1.512
		c0.696-0.528,1.464-0.816,2.568-0.816c1.536,0,3.816,1.008,3.816,5.04V79.8h-2.064v-6.577c0-2.232-0.816-3.576-2.52-3.576
		c-1.2,0-2.136,0.888-2.497,1.92c-0.096,0.288-0.168,0.672-0.168,1.056V79.8h-2.064v-6.96c0-1.848-0.816-3.192-2.424-3.192
		c-1.32,0-2.28,1.056-2.616,2.112c-0.12,0.312-0.168,0.672-0.168,1.032V79.8h-2.064V71.327z"/>
	<path fill="#333333" d="M226.793,64.918c0.024,0.72-0.504,1.296-1.344,1.296c-0.744,0-1.272-0.576-1.272-1.296
		c0-0.744,0.552-1.32,1.32-1.32C226.289,63.599,226.793,64.174,226.793,64.918z M224.44,79.8V68.183h2.112V79.8H224.44z"/>
	<path fill="#333333" d="M230.056,71.807c0-1.368-0.024-2.544-0.096-3.625h1.848l0.072,2.28h0.096c0.528-1.56,1.8-2.544,3.216-2.544
		c0.24,0,0.408,0.024,0.6,0.072v1.992c-0.216-0.048-0.432-0.072-0.72-0.072c-1.488,0-2.544,1.128-2.832,2.712
		c-0.048,0.288-0.096,0.624-0.096,0.984V79.8h-2.088V71.807z"/>
	<path fill="#333333" d="M238,71.807c0-1.368-0.024-2.544-0.096-3.625h1.848l0.072,2.28h0.096c0.528-1.56,1.8-2.544,3.216-2.544
		c0.24,0,0.408,0.024,0.6,0.072v1.992c-0.216-0.048-0.432-0.072-0.72-0.072c-1.488,0-2.544,1.128-2.832,2.712
		c-0.048,0.288-0.096,0.624-0.096,0.984V79.8H238V71.807z"/>
	<path fill="#333333" d="M256.121,73.896c0,4.296-2.977,6.168-5.785,6.168c-3.144,0-5.568-2.304-5.568-5.977
		c0-3.888,2.544-6.168,5.76-6.168C253.865,67.919,256.121,70.343,256.121,73.896z M246.904,74.015c0,2.544,1.464,4.464,3.528,4.464
		c2.017,0,3.528-1.896,3.528-4.512c0-1.968-0.984-4.464-3.48-4.464S246.904,71.807,246.904,74.015z"/>
	<path fill="#333333" d="M258.784,71.807c0-1.368-0.024-2.544-0.096-3.625h1.849l0.071,2.28h0.097c0.527-1.56,1.8-2.544,3.216-2.544
		c0.239,0,0.408,0.024,0.601,0.072v1.992c-0.217-0.048-0.433-0.072-0.721-0.072c-1.488,0-2.544,1.128-2.832,2.712
		c-0.049,0.288-0.096,0.624-0.096,0.984V79.8h-2.089V71.807z"/>
	<path fill="#333333" d="M269.08,64.918c0.023,0.72-0.504,1.296-1.344,1.296c-0.744,0-1.272-0.576-1.272-1.296
		c0-0.744,0.552-1.32,1.319-1.32C268.576,63.599,269.08,64.174,269.08,64.918z M266.728,79.8V68.183h2.112V79.8H266.728z"/>
	<path fill="#333333" d="M272.344,71.327c0-1.2-0.023-2.184-0.096-3.145h1.872l0.12,1.92h0.048c0.576-1.104,1.921-2.184,3.841-2.184
		c1.607,0,4.104,0.96,4.104,4.944V79.8h-2.111v-6.697c0-1.872-0.696-3.432-2.688-3.432c-1.393,0-2.473,0.984-2.833,2.16
		c-0.096,0.264-0.144,0.624-0.144,0.984V79.8h-2.112V71.327z"/>
	<path fill="#333333" d="M295.673,68.183c-0.048,0.84-0.097,1.776-0.097,3.192v6.745c0,2.664-0.527,4.296-1.656,5.305
		c-1.127,1.056-2.76,1.392-4.224,1.392c-1.392,0-2.929-0.336-3.864-0.96l0.527-1.608c0.769,0.48,1.969,0.912,3.408,0.912
		c2.16,0,3.745-1.128,3.745-4.057v-1.296h-0.048c-0.648,1.08-1.896,1.944-3.697,1.944c-2.88,0-4.943-2.448-4.943-5.665
		c0-3.937,2.568-6.168,5.232-6.168c2.016,0,3.119,1.056,3.624,2.016h0.048l0.096-1.752H295.673z M293.488,72.767
		c0-0.36-0.023-0.672-0.119-0.96c-0.385-1.224-1.417-2.232-2.953-2.232c-2.016,0-3.456,1.705-3.456,4.393
		c0,2.28,1.151,4.176,3.433,4.176c1.296,0,2.472-0.816,2.928-2.16c0.12-0.36,0.168-0.768,0.168-1.128V72.767z"/>
</g>
<g>
	<path fill="#FFFFFF" d="M419.431,371.752c0-0.64-0.021-1.189-0.04-1.64h1.319l0.069,0.68h0.021c0.36-0.52,0.919-0.789,1.629-0.789
		c1.069,0,2.028,0.93,2.028,2.488c0,1.779-1.129,2.619-2.219,2.619c-0.589,0-1.049-0.24-1.269-0.561h-0.021v2.429h-1.519V371.752z
		 M420.949,372.901c0,0.12,0.01,0.229,0.03,0.319c0.101,0.41,0.45,0.72,0.89,0.72c0.66,0,1.049-0.55,1.049-1.379
		c0-0.779-0.35-1.369-1.029-1.369c-0.43,0-0.809,0.319-0.909,0.77c-0.021,0.08-0.03,0.18-0.03,0.27V372.901z"/>
	<path fill="#FFFFFF" d="M425.41,371.722c0-0.72-0.02-1.189-0.039-1.609h1.309l0.05,0.899h0.04c0.25-0.709,0.85-1.009,1.319-1.009
		c0.14,0,0.21,0,0.319,0.02v1.43c-0.109-0.021-0.239-0.04-0.409-0.04c-0.56,0-0.939,0.3-1.04,0.77c-0.02,0.1-0.029,0.22-0.029,0.34
		V375h-1.52V371.722z"/>
	<path fill="#FFFFFF" d="M430.299,373.041c0.051,0.63,0.67,0.93,1.38,0.93c0.52,0,0.939-0.07,1.349-0.2l0.201,1.029
		c-0.5,0.2-1.109,0.3-1.77,0.3c-1.659,0-2.609-0.959-2.609-2.488c0-1.239,0.771-2.608,2.469-2.608c1.58,0,2.18,1.229,2.18,2.438
		c0,0.26-0.03,0.489-0.051,0.6H430.299z M432.088,372.002c0-0.37-0.159-0.99-0.859-0.99c-0.639,0-0.898,0.58-0.939,0.99H432.088z"/>
	<path fill="#FFFFFF" d="M434.41,371.752c0-0.64-0.02-1.189-0.039-1.64h1.318l0.07,0.68h0.02c0.36-0.52,0.92-0.789,1.629-0.789
		c1.07,0,2.029,0.93,2.029,2.488c0,1.779-1.129,2.619-2.219,2.619c-0.59,0-1.049-0.24-1.27-0.561h-0.02v2.429h-1.52V371.752z
		 M435.93,372.901c0,0.12,0.01,0.229,0.029,0.319c0.101,0.41,0.45,0.72,0.891,0.72c0.659,0,1.049-0.55,1.049-1.379
		c0-0.779-0.35-1.369-1.029-1.369c-0.43,0-0.81,0.319-0.91,0.77c-0.02,0.08-0.029,0.18-0.029,0.27V372.901z"/>
	<path fill="#FFFFFF" d="M440.391,371.722c0-0.72-0.02-1.189-0.04-1.609h1.31l0.049,0.899h0.041c0.25-0.709,0.85-1.009,1.318-1.009
		c0.141,0,0.211,0,0.32,0.02v1.43c-0.109-0.021-0.24-0.04-0.41-0.04c-0.559,0-0.939,0.3-1.039,0.77c-0.02,0.1-0.029,0.22-0.029,0.34
		V375h-1.52V371.722z"/>
	<path fill="#FFFFFF" d="M445.279,373.041c0.051,0.63,0.67,0.93,1.379,0.93c0.521,0,0.939-0.07,1.35-0.2l0.2,1.029
		c-0.5,0.2-1.109,0.3-1.769,0.3c-1.66,0-2.609-0.959-2.609-2.488c0-1.239,0.77-2.608,2.469-2.608c1.579,0,2.179,1.229,2.179,2.438
		c0,0.26-0.03,0.489-0.05,0.6H445.279z M447.068,372.002c0-0.37-0.16-0.99-0.859-0.99c-0.64,0-0.899,0.58-0.939,0.99H447.068z"/>
	<path fill="#FFFFFF" d="M449.38,373.671c0.28,0.17,0.859,0.37,1.31,0.37c0.459,0,0.649-0.16,0.649-0.41s-0.149-0.37-0.72-0.56
		c-1.01-0.34-1.398-0.89-1.389-1.47c0-0.909,0.779-1.599,1.988-1.599c0.57,0,1.08,0.13,1.379,0.279l-0.27,1.05
		c-0.22-0.12-0.64-0.28-1.059-0.28c-0.371,0-0.58,0.15-0.58,0.4c0,0.229,0.189,0.35,0.789,0.56c0.93,0.319,1.319,0.789,1.33,1.509
		c0,0.91-0.721,1.579-2.119,1.579c-0.64,0-1.209-0.14-1.58-0.34L449.38,373.671z"/>
	<path fill="#FFFFFF" d="M453.721,373.671c0.279,0.17,0.859,0.37,1.309,0.37c0.46,0,0.65-0.16,0.65-0.41s-0.15-0.37-0.721-0.56
		c-1.009-0.34-1.398-0.89-1.389-1.47c0-0.909,0.779-1.599,1.988-1.599c0.57,0,1.08,0.13,1.38,0.279l-0.271,1.05
		c-0.219-0.12-0.639-0.28-1.059-0.28c-0.37,0-0.58,0.15-0.58,0.4c0,0.229,0.189,0.35,0.79,0.56c0.929,0.319,1.319,0.789,1.329,1.509
		c0,0.91-0.72,1.579-2.119,1.579c-0.639,0-1.209-0.14-1.579-0.34L453.721,373.671z"/>
	<path fill="#FFFFFF" d="M462.678,373.431c0,0.64,0.02,1.159,0.04,1.569h-1.319l-0.07-0.689h-0.029c-0.19,0.3-0.65,0.8-1.529,0.8
		c-0.99,0-1.719-0.62-1.719-2.129v-2.869h1.528v2.629c0,0.71,0.229,1.14,0.76,1.14c0.42,0,0.659-0.29,0.76-0.53
		c0.04-0.09,0.05-0.21,0.05-0.329v-2.909h1.529V373.431z"/>
	<path fill="#FFFFFF" d="M463.9,371.722c0-0.72-0.021-1.189-0.041-1.609h1.31l0.05,0.899h0.04c0.25-0.709,0.85-1.009,1.319-1.009
		c0.141,0,0.21,0,0.32,0.02v1.43c-0.11-0.021-0.24-0.04-0.41-0.04c-0.56,0-0.939,0.3-1.039,0.77c-0.021,0.1-0.03,0.22-0.03,0.34V375
		H463.9V371.722z"/>
	<path fill="#FFFFFF" d="M468.789,373.041c0.051,0.63,0.67,0.93,1.379,0.93c0.521,0,0.939-0.07,1.35-0.2l0.2,1.029
		c-0.5,0.2-1.109,0.3-1.769,0.3c-1.66,0-2.609-0.959-2.609-2.488c0-1.239,0.77-2.608,2.469-2.608c1.579,0,2.179,1.229,2.179,2.438
		c0,0.26-0.03,0.489-0.05,0.6H468.789z M470.578,372.002c0-0.37-0.16-0.99-0.859-0.99c-0.64,0-0.899,0.58-0.939,0.99H470.578z"/>
	<path fill="#FFFFFF" d="M472.63,374.19c0-0.54,0.37-0.93,0.899-0.93s0.89,0.38,0.89,0.93c0,0.529-0.36,0.92-0.899,0.92
		C473,375.11,472.63,374.72,472.63,374.19z"/>
	<path fill="#FFFFFF" d="M479.008,374.88c-0.27,0.12-0.779,0.22-1.359,0.22c-1.578,0-2.588-0.959-2.588-2.498
		c0-1.43,0.979-2.599,2.799-2.599c0.398,0,0.839,0.069,1.158,0.189l-0.239,1.13c-0.181-0.08-0.45-0.15-0.85-0.15
		c-0.8,0-1.319,0.57-1.31,1.369c0,0.899,0.6,1.369,1.34,1.369c0.359,0,0.639-0.06,0.869-0.149L479.008,374.88z"/>
	<path fill="#FFFFFF" d="M484.567,372.501c0,1.789-1.27,2.609-2.579,2.609c-1.429,0-2.528-0.939-2.528-2.519
		c0-1.58,1.04-2.589,2.608-2.589C483.568,370.003,484.567,371.032,484.567,372.501z M481.029,372.552c0,0.839,0.35,1.469,1,1.469
		c0.59,0,0.969-0.59,0.969-1.469c0-0.73-0.279-1.47-0.969-1.47C481.299,371.082,481.029,371.832,481.029,372.552z"/>
	<path fill="#FFFFFF" d="M485.51,371.672c0-0.609-0.02-1.13-0.039-1.56h1.279l0.069,0.66h0.03c0.209-0.31,0.639-0.77,1.479-0.77
		c0.63,0,1.13,0.319,1.34,0.829h0.02c0.18-0.25,0.4-0.449,0.63-0.59c0.271-0.159,0.569-0.239,0.93-0.239
		c0.939,0,1.649,0.659,1.649,2.118V375h-1.479v-2.658c0-0.71-0.229-1.12-0.72-1.12c-0.35,0-0.6,0.24-0.699,0.53
		c-0.041,0.109-0.061,0.27-0.061,0.39V375h-1.479v-2.738c0-0.62-0.221-1.04-0.7-1.04c-0.39,0-0.62,0.3-0.71,0.55
		c-0.05,0.12-0.06,0.26-0.06,0.38V375h-1.479V371.672z"/>
</g>
<g>
	<path fill="#999999" stroke="#999999" stroke-miterlimit="10" d="M107.5,153.5v173l0,0c0.521,9,23.034,18.938,50.308,18.938
		c27.273,0,49.171-9.938,49.692-18.938l0,0v-173H107.5z"/>
	<ellipse fill="#E6E6E6" stroke="#FFFFFF" stroke-miterlimit="10" cx="157.808" cy="153.038" rx="49.975" ry="19.314"/>
	<g>
		<path fill="none" d="M207.783,318.883c0,10.666-22.375,19.313-49.976,19.313c-27.6,0-49.974-8.646-49.974-19.313"/>
		<path fill="#FFFFFF" d="M141.315,324.404v10.533c0,0.773,0.018,1.659,0.071,2.262l-1.402-0.239l-0.071-1.524l-0.036-0.006
			c-0.479,0.891-1.526,1.449-2.928,1.209c-2.076-0.355-3.673-2.411-3.673-5.058c-0.018-2.901,1.757-4.381,3.851-4.022
			c1.313,0.225,2.2,1.006,2.591,1.775l0.036,0.006v-5.203L141.315,324.404z M139.754,331.753c0-0.198-0.018-0.472-0.071-0.679
			c-0.23-1.047-1.083-2.021-2.253-2.222c-1.615-0.276-2.573,1-2.573,2.927c0,1.764,0.852,3.369,2.538,3.657
			c1.047,0.179,2.005-0.359,2.289-1.499c0.053-0.207,0.071-0.42,0.071-0.672V331.753z"/>
		<path fill="#FFFFFF" d="M143.921,331.455c0-1.026-0.018-1.91-0.072-2.727l1.379,0.135l0.054,1.715l0.072,0.008
			c0.394-1.133,1.344-1.778,2.4-1.676c0.179,0.018,0.305,0.048,0.448,0.098v1.494c-0.161-0.051-0.322-0.085-0.537-0.105
			c-1.111-0.108-1.899,0.662-2.114,1.829c-0.036,0.212-0.072,0.461-0.072,0.731v4.645l-1.559-0.15V331.455z"/>
		<path fill="#FFFFFF" d="M151.634,326.889c0.018,0.541-0.377,0.951-1.007,0.917c-0.557-0.03-0.953-0.484-0.953-1.024
			c0-0.559,0.414-0.968,0.989-0.936C151.256,325.878,151.634,326.331,151.634,326.889z M149.872,337.955v-8.715l1.582,0.088v8.715
			L149.872,337.955z"/>
		<path fill="#FFFFFF" d="M154.679,329.463l1.71,4.908c0.288,0.793,0.522,1.516,0.702,2.236h0.054
			c0.198-0.719,0.45-1.438,0.738-2.229l1.693-4.887l1.656,0.01l-3.421,8.693l-1.513-0.008l-3.313-8.734L154.679,329.463z"/>
		<path fill="#FFFFFF" d="M163.418,334.027c0.036,2.141,1.401,2.939,2.981,2.843c1.131-0.069,1.814-0.31,2.407-0.597l0.269,1.117
			c-0.557,0.286-1.508,0.633-2.891,0.717c-2.676,0.164-4.274-1.503-4.274-4.131c0-2.629,1.544-4.795,4.077-4.949
			c2.837-0.174,3.592,2.283,3.592,3.885c0,0.324-0.036,0.579-0.054,0.742L163.418,334.027z M168.052,332.609
			c0.018-1.009-0.413-2.549-2.191-2.44c-1.599,0.099-2.299,1.617-2.425,2.724L168.052,332.609z"/>
		<path fill="#FFFFFF" d="M178.219,326.291l-0.036,0.006l-2.003,1.452l-0.301-1.153l2.518-1.813l1.33-0.234v11.703l-1.507,0.266
			V326.291z"/>
	</g>
	<g>
		<path fill="#327DD8" stroke="#327DD8" stroke-miterlimit="10" d="M112.5,271.5v28h0.106c0.469,8,20.408,17.043,44.954,17.043
			s44.485-9.043,44.955-17.043H202.5v-28H112.5z"/>
		<ellipse fill="#4DC3F8" stroke="#FFFFFF" stroke-miterlimit="10" cx="157.561" cy="271.107" rx="44.977" ry="17.382"/>
		<g>
			<path fill="none" d="M202.538,292.567c0,9.6-20.137,17.382-44.978,17.382c-24.84,0-44.977-7.782-44.977-17.382"/>
			<path fill="#FFFFFF" d="M124.802,304.705c0.044-0.748,0.088-1.864,0.088-2.856v-13.497l1.918,0.591v7.014l0.044,0.014
				c0.684-1.035,1.918-1.462,3.638-0.933c2.646,0.814,4.52,3.699,4.498,7.084c0,3.99-2.403,5.234-4.785,4.502
				c-1.543-0.476-2.778-1.479-3.572-3.199l-0.066-0.021l-0.088,1.818L124.802,304.705z M126.808,300.848
				c0,0.254,0.044,0.521,0.088,0.766c0.375,1.522,1.499,2.838,2.91,3.272c2.029,0.624,3.241-0.732,3.241-3.294
				c0-2.237-1.103-4.492-3.175-5.13c-1.323-0.407-2.558,0.158-2.955,1.581c-0.044,0.218-0.11,0.475-0.11,0.797V300.848z"/>
			<path fill="#FFFFFF" d="M137.563,291.766l1.998,0.36v16.38l-1.998-0.359V291.766z"/>
			<path fill="#FFFFFF" d="M152.972,304.314c0,4.13-2.85,5.68-5.538,5.444c-3.01-0.265-5.332-2.683-5.332-6.212
				c0-3.738,2.436-5.717,5.515-5.446C150.812,298.381,152.972,300.9,152.972,304.314z M144.148,303.656
				c0,2.445,1.402,4.414,3.378,4.588c1.93,0.169,3.378-1.527,3.378-4.041c0-1.893-0.942-4.375-3.332-4.584
				C145.182,299.41,144.148,301.534,144.148,303.656z"/>
			<path fill="#FFFFFF" d="M163.522,309.467c-0.531,0.284-1.708,0.668-3.207,0.688c-3.369,0.042-5.561-2.215-5.561-5.629
				c0-3.438,2.354-5.959,5.999-6.005c1.199-0.015,2.261,0.271,2.814,0.541l-0.461,1.575c-0.484-0.271-1.246-0.516-2.353-0.502
				c-2.561,0.033-3.945,1.941-3.945,4.271c0,2.584,1.661,4.156,3.876,4.128c1.153-0.015,1.915-0.324,2.492-0.585L163.522,309.467z"
				/>
			<path fill="#FFFFFF" d="M167.898,303.457l0.046-0.006c0.275-0.421,0.666-0.947,0.987-1.374l3.259-4.202l2.433-0.26l-4.292,5.051
				l4.888,6.052l-2.456,0.263l-3.833-4.941l-1.033,1.264v4.199l-1.997,0.213v-16.381l1.997-0.213V303.457z"/>
			<path fill="#FFFFFF" d="M186.567,305.857v-3.576l-6.341,1.982v-2.284l5.417-10.829l4.096-1.279v8.789l1.717-0.536v2.63
				l-1.717,0.537v3.576L186.567,305.857z M186.567,299.652v-3.322c0-0.9,0.044-1.837,0.11-2.826l-0.088,0.027
				c-0.462,1.113-0.836,2.107-1.321,3.204l-1.916,3.875v0.046L186.567,299.652z"/>
		</g>
	</g>
	<g>
	</g>
	<g>
		<path fill="#327DD8" stroke="#327DD8" stroke-miterlimit="10" d="M112.5,232.5v28h0.106c0.469,8,20.408,17.043,44.954,17.043
			s44.485-9.043,44.955-17.043H202.5v-28H112.5z"/>
		<ellipse fill="#4DC3F8" stroke="#FFFFFF" stroke-miterlimit="10" cx="157.561" cy="231.773" rx="44.977" ry="17.383"/>
		<g>
			<path fill="none" d="M202.538,253.234c0,9.6-20.137,17.381-44.978,17.381c-24.84,0-44.977-7.781-44.977-17.381"/>
			<path fill="#FFFFFF" d="M124.802,265.372c0.044-0.748,0.088-1.864,0.088-2.856v-13.497l1.918,0.591v7.014l0.044,0.014
				c0.684-1.035,1.918-1.463,3.638-0.934c2.646,0.814,4.52,3.699,4.498,7.084c0,3.991-2.403,5.235-4.785,4.502
				c-1.543-0.475-2.778-1.479-3.572-3.199l-0.066-0.021l-0.088,1.818L124.802,265.372z M126.808,261.514
				c0,0.254,0.044,0.521,0.088,0.766c0.375,1.523,1.499,2.838,2.91,3.273c2.029,0.624,3.241-0.732,3.241-3.294
				c0-2.237-1.103-4.492-3.175-5.13c-1.323-0.408-2.558,0.158-2.955,1.581c-0.044,0.218-0.11,0.474-0.11,0.797V261.514z"/>
			<path fill="#FFFFFF" d="M137.563,252.433l1.998,0.36v16.38l-1.998-0.36V252.433z"/>
			<path fill="#FFFFFF" d="M152.972,264.98c0,4.131-2.85,5.68-5.538,5.445c-3.01-0.265-5.332-2.684-5.332-6.213
				c0-3.737,2.436-5.716,5.515-5.445C150.812,259.047,152.972,261.566,152.972,264.98z M144.148,264.323
				c0,2.445,1.402,4.414,3.378,4.587c1.93,0.17,3.378-1.526,3.378-4.041c0-1.893-0.942-4.374-3.332-4.584
				C145.182,260.076,144.148,262.201,144.148,264.323z"/>
			<path fill="#FFFFFF" d="M163.522,270.134c-0.531,0.284-1.708,0.667-3.207,0.687c-3.369,0.043-5.561-2.215-5.561-5.629
				c0-3.438,2.354-5.959,5.999-6.004c1.199-0.016,2.261,0.271,2.814,0.541l-0.461,1.574c-0.484-0.271-1.246-0.515-2.353-0.501
				c-2.561,0.032-3.945,1.941-3.945,4.271c0,2.584,1.661,4.155,3.876,4.128c1.153-0.016,1.915-0.324,2.492-0.586L163.522,270.134z"
				/>
			<path fill="#FFFFFF" d="M167.898,264.123l0.046-0.005c0.275-0.421,0.666-0.948,0.987-1.374l3.259-4.202l2.433-0.261l-4.292,5.051
				l4.888,6.053l-2.456,0.262l-3.833-4.941l-1.033,1.264v4.199l-1.997,0.214v-16.381l1.997-0.214V264.123z"/>
			<path fill="#FFFFFF" d="M181.238,264.752c0.595,0.137,1.96,0.311,3.325-0.116c1.739-0.544,2.62-1.696,2.62-2.826
				c0-1.477-1.409-1.705-2.884-1.244l-1.365,0.427v-2.515l1.299-0.406c1.123-0.374,2.554-1.26,2.554-2.528
				c0-0.9-0.705-1.349-2.114-0.908c-1.167,0.365-2.4,1.281-2.995,1.836l-0.683-2.324c0.859-0.846,2.576-1.937,4.426-2.515
				c3.061-0.956,4.756,0.198,4.756,2.251c0,1.592-0.859,3.106-2.621,4.303v0.047c1.718-0.215,3.105,0.713,3.105,2.674
				c0,2.654-2.224,5.287-5.857,6.422c-1.85,0.578-3.413,0.56-4.25,0.268L181.238,264.752z"/>
		</g>
	</g>
	<g>
		<path fill="#327DD8" stroke="#327DD8" stroke-miterlimit="10" d="M112.5,192.5v28h0.106c0.469,8,20.408,17.043,44.954,17.043
			s44.485-9.043,44.955-17.043H202.5v-28H112.5z"/>
		<ellipse fill="#4DC3F8" stroke="#FFFFFF" stroke-miterlimit="10" cx="157.561" cy="192.441" rx="44.977" ry="17.381"/>
		<g>
			<path fill="none" d="M202.538,213.9c0,9.6-20.137,17.383-44.978,17.383c-24.84,0-44.977-7.783-44.977-17.383"/>
			<path fill="#FFFFFF" d="M124.802,226.039c0.044-0.748,0.088-1.865,0.088-2.857v-13.496l1.918,0.59v7.014l0.044,0.014
				c0.684-1.035,1.918-1.462,3.638-0.932c2.646,0.814,4.52,3.698,4.498,7.083c0,3.991-2.403,5.235-4.785,4.502
				c-1.543-0.476-2.778-1.479-3.572-3.199l-0.066-0.021l-0.088,1.818L124.802,226.039z M126.808,222.182
				c0,0.253,0.044,0.521,0.088,0.765c0.375,1.522,1.499,2.839,2.91,3.272c2.029,0.625,3.241-0.732,3.241-3.293
				c0-2.238-1.103-4.492-3.175-5.131c-1.323-0.407-2.558,0.158-2.955,1.582c-0.044,0.217-0.11,0.474-0.11,0.797V222.182z"/>
			<path fill="#FFFFFF" d="M137.563,213.1l1.998,0.359v16.381l-1.998-0.359V213.1z"/>
			<path fill="#FFFFFF" d="M152.972,225.648c0,4.129-2.85,5.68-5.538,5.443c-3.01-0.264-5.332-2.682-5.332-6.212
				c0-3.737,2.436-5.716,5.515-5.446C150.812,219.714,152.972,222.233,152.972,225.648z M144.148,224.99
				c0,2.445,1.402,4.414,3.378,4.588c1.93,0.168,3.378-1.527,3.378-4.042c0-1.892-0.942-4.374-3.332-4.583
				C145.182,220.743,144.148,222.867,144.148,224.99z"/>
			<path fill="#FFFFFF" d="M163.522,230.801c-0.531,0.283-1.708,0.668-3.207,0.687c-3.369,0.042-5.561-2.214-5.561-5.629
				c0-3.438,2.354-5.959,5.999-6.005c1.199-0.015,2.261,0.271,2.814,0.541l-0.461,1.575c-0.484-0.271-1.246-0.515-2.353-0.501
				c-2.561,0.032-3.945,1.941-3.945,4.271c0,2.584,1.661,4.155,3.876,4.127c1.153-0.014,1.915-0.324,2.492-0.584L163.522,230.801z"
				/>
			<path fill="#FFFFFF" d="M167.898,224.791l0.046-0.006c0.275-0.422,0.666-0.947,0.987-1.375l3.259-4.201l2.433-0.26l-4.292,5.05
				l4.888,6.052l-2.456,0.264l-3.833-4.942l-1.033,1.265v4.198l-1.997,0.214v-16.381l1.997-0.213V224.791z"/>
			<path fill="#FFFFFF" d="M180.644,229.043v-2.123l1.85-2.332c3.126-3.906,4.646-6.066,4.69-7.833c0-1.223-0.705-1.972-2.356-1.456
				c-1.233,0.387-2.312,1.369-3.061,2.203l-0.947-2.219c1.079-1.191,2.752-2.406,4.69-3.012c3.236-1.012,5.02,0.415,5.02,3.138
				c0,2.515-1.739,5.065-3.809,7.65l-1.321,1.566v0.046l5.395-1.686v2.884L180.644,229.043z"/>
		</g>
	</g>
	<g>
		<path fill="#327DD8" stroke="#327DD8" stroke-miterlimit="10" d="M112.5,153.5v28h0.106c0.469,8,20.408,17.043,44.954,17.043
			s44.485-9.043,44.955-17.043H202.5v-28H112.5z"/>
		<ellipse fill="#4DC3F8" stroke="#FFFFFF" stroke-miterlimit="10" cx="157.561" cy="153.107" rx="44.977" ry="17.382"/>
		<g>
			<path fill="none" d="M202.538,174.567c0,9.6-20.137,17.382-44.978,17.382c-24.84,0-44.977-7.782-44.977-17.382"/>
			<path fill="#FFFFFF" d="M124.802,186.706c0.044-0.748,0.088-1.865,0.088-2.857v-13.497l1.918,0.59v7.014l0.044,0.014
				c0.684-1.035,1.918-1.462,3.638-0.933c2.646,0.814,4.52,3.699,4.498,7.083c0,3.991-2.403,5.235-4.785,4.502
				c-1.543-0.475-2.778-1.479-3.572-3.199l-0.066-0.021l-0.088,1.818L124.802,186.706z M126.808,182.848
				c0,0.253,0.044,0.521,0.088,0.765c0.375,1.523,1.499,2.838,2.91,3.273c2.029,0.625,3.241-0.732,3.241-3.293
				c0-2.238-1.103-4.492-3.175-5.13c-1.323-0.408-2.558,0.158-2.955,1.582c-0.044,0.217-0.11,0.474-0.11,0.797V182.848z"/>
			<path fill="#FFFFFF" d="M137.563,173.766l1.998,0.36v16.38l-1.998-0.36V173.766z"/>
			<path fill="#FFFFFF" d="M152.972,186.314c0,4.13-2.85,5.68-5.538,5.444c-3.01-0.265-5.332-2.683-5.332-6.212
				c0-3.737,2.436-5.716,5.515-5.446C150.812,180.38,152.972,182.9,152.972,186.314z M144.148,185.657
				c0,2.445,1.402,4.414,3.378,4.587c1.93,0.169,3.378-1.527,3.378-4.042c0-1.892-0.942-4.374-3.332-4.583
				C145.182,181.41,144.148,183.534,144.148,185.657z"/>
			<path fill="#FFFFFF" d="M163.522,191.467c-0.531,0.284-1.708,0.668-3.207,0.688c-3.369,0.042-5.561-2.215-5.561-5.629
				c0-3.438,2.354-5.959,5.999-6.004c1.199-0.015,2.261,0.271,2.814,0.541l-0.461,1.575c-0.484-0.271-1.246-0.515-2.353-0.501
				c-2.561,0.032-3.945,1.941-3.945,4.271c0,2.584,1.661,4.155,3.876,4.127c1.153-0.015,1.915-0.324,2.492-0.585L163.522,191.467z"
				/>
			<path fill="#FFFFFF" d="M167.898,185.457l0.046-0.005c0.275-0.421,0.666-0.948,0.987-1.375l3.259-4.202l2.433-0.26l-4.292,5.05
				l4.888,6.052l-2.456,0.263l-3.833-4.942l-1.033,1.264v4.199l-1.997,0.213v-16.38l1.997-0.213V185.457z"/>
			<path fill="#FFFFFF" d="M184.916,176.492l-0.044,0.014l-2.73,2.215l-0.55-2.458l3.787-3.03l2.774-0.867v14.996l-3.237,1.012
				V176.492z"/>
		</g>
	</g>
</g>
<g>
	<path fill="#999999" stroke="#999999" stroke-miterlimit="10" d="M292.5,153.5v173l0,0c0.521,9,23.033,18.938,50.308,18.938
		c27.273,0,49.171-9.938,49.692-18.938l0,0v-173H292.5z"/>
	<ellipse fill="#E6E6E6" stroke="#FFFFFF" stroke-miterlimit="10" cx="342.809" cy="153.038" rx="49.975" ry="19.314"/>
	<g>
		<path fill="none" d="M392.783,318.883c0,10.666-22.375,19.313-49.977,19.313c-27.6,0-49.973-8.646-49.973-19.313"/>
		<path fill="#FFFFFF" d="M326.315,324.404v10.533c0,0.773,0.018,1.659,0.071,2.262l-1.402-0.239l-0.07-1.524l-0.036-0.006
			c-0.479,0.891-1.526,1.449-2.929,1.209c-2.076-0.355-3.673-2.411-3.673-5.058c-0.018-2.901,1.757-4.381,3.851-4.022
			c1.313,0.225,2.201,1.006,2.592,1.775l0.035,0.006v-5.203L326.315,324.404z M324.754,331.753c0-0.198-0.018-0.472-0.071-0.679
			c-0.23-1.047-1.083-2.021-2.253-2.222c-1.615-0.276-2.574,1-2.574,2.927c0,1.764,0.852,3.369,2.538,3.657
			c1.047,0.179,2.005-0.359,2.289-1.499c0.054-0.207,0.071-0.42,0.071-0.672V331.753z"/>
		<path fill="#FFFFFF" d="M328.922,331.455c0-1.026-0.018-1.91-0.072-2.727l1.379,0.135l0.055,1.715l0.071,0.008
			c0.394-1.133,1.344-1.778,2.4-1.676c0.179,0.018,0.305,0.048,0.448,0.098v1.494c-0.162-0.051-0.322-0.085-0.537-0.105
			c-1.111-0.108-1.899,0.662-2.114,1.829c-0.036,0.212-0.071,0.461-0.071,0.731v4.645l-1.559-0.15V331.455z"/>
		<path fill="#FFFFFF" d="M336.634,326.889c0.019,0.541-0.378,0.951-1.007,0.917c-0.557-0.03-0.953-0.484-0.953-1.024
			c0-0.559,0.414-0.968,0.989-0.936C336.256,325.878,336.634,326.331,336.634,326.889z M334.872,337.955v-8.715l1.582,0.088v8.715
			L334.872,337.955z"/>
		<path fill="#FFFFFF" d="M339.679,329.463l1.71,4.908c0.289,0.793,0.522,1.516,0.703,2.236h0.053
			c0.199-0.719,0.451-1.438,0.738-2.229l1.693-4.887l1.656,0.01l-3.421,8.693l-1.513-0.008l-3.313-8.734L339.679,329.463z"/>
		<path fill="#FFFFFF" d="M348.418,334.027c0.036,2.141,1.4,2.939,2.981,2.843c1.132-0.069,1.813-0.31,2.407-0.597l0.269,1.117
			c-0.557,0.286-1.509,0.633-2.892,0.717c-2.676,0.164-4.273-1.503-4.273-4.131c0-2.629,1.544-4.795,4.076-4.949
			c2.838-0.174,3.592,2.283,3.592,3.885c0,0.324-0.035,0.579-0.054,0.742L348.418,334.027z M353.052,332.609
			c0.019-1.009-0.413-2.549-2.19-2.44c-1.6,0.099-2.299,1.617-2.426,2.724L353.052,332.609z"/>
		<path fill="#FFFFFF" d="M359.832,337.115v-0.973l1.224-1.422c2.942-3.363,4.272-5.111,4.29-6.879c0-1.188-0.566-2.186-2.287-1.883
			c-1.045,0.185-1.914,0.878-2.446,1.422l-0.497-1.028c0.799-0.825,1.934-1.529,3.264-1.765c2.481-0.438,3.527,1.106,3.527,2.781
			c0,2.16-1.542,4.18-3.971,6.984l-0.922,1.027v0.035l5.177-0.913v1.314L359.832,337.115z"/>
	</g>
	<g>
		<path fill="#327DD8" stroke="#327DD8" stroke-miterlimit="10" d="M297.5,271.5v28h0.105c0.469,8,20.408,17.043,44.955,17.043
			c24.546,0,44.484-9.043,44.954-17.043H387.5v-28H297.5z"/>
		<ellipse fill="#4DC3F8" stroke="#FFFFFF" stroke-miterlimit="10" cx="342.561" cy="271.107" rx="44.977" ry="17.382"/>
		<g>
			<path fill="none" d="M387.538,292.567c0,9.6-20.138,17.382-44.978,17.382s-44.977-7.782-44.977-17.382"/>
			<path fill="#FFFFFF" d="M309.802,304.705c0.044-0.748,0.088-1.864,0.088-2.856v-13.497l1.919,0.591v7.014l0.043,0.014
				c0.684-1.035,1.919-1.462,3.639-0.933c2.646,0.814,4.52,3.699,4.498,7.084c0,3.99-2.403,5.234-4.785,4.502
				c-1.543-0.476-2.777-1.479-3.571-3.199l-0.066-0.021l-0.088,1.818L309.802,304.705z M311.809,300.848
				c0,0.254,0.043,0.521,0.088,0.766c0.375,1.522,1.499,2.838,2.91,3.272c2.029,0.624,3.241-0.732,3.241-3.294
				c0-2.237-1.103-4.492-3.175-5.13c-1.323-0.407-2.558,0.158-2.955,1.581c-0.044,0.218-0.109,0.475-0.109,0.797V300.848z"/>
			<path fill="#FFFFFF" d="M322.563,291.766l1.998,0.36v16.38l-1.998-0.359V291.766z"/>
			<path fill="#FFFFFF" d="M337.973,304.314c0,4.13-2.85,5.68-5.539,5.444c-3.01-0.265-5.331-2.683-5.331-6.212
				c0-3.738,2.437-5.717,5.515-5.446C335.813,298.381,337.973,300.9,337.973,304.314z M329.148,303.656
				c0,2.445,1.401,4.414,3.377,4.588c1.931,0.169,3.379-1.527,3.379-4.041c0-1.893-0.942-4.375-3.332-4.584
				C330.182,299.41,329.148,301.534,329.148,303.656z"/>
			<path fill="#FFFFFF" d="M348.521,309.467c-0.53,0.284-1.707,0.668-3.207,0.688c-3.368,0.042-5.561-2.215-5.561-5.629
				c0-3.438,2.354-5.959,6-6.005c1.199-0.015,2.26,0.271,2.814,0.541l-0.462,1.575c-0.484-0.271-1.245-0.516-2.353-0.502
				c-2.562,0.033-3.945,1.941-3.945,4.271c0,2.584,1.66,4.156,3.875,4.128c1.154-0.015,1.916-0.324,2.492-0.585L348.521,309.467z"/>
			<path fill="#FFFFFF" d="M352.898,303.457l0.046-0.006c0.275-0.421,0.665-0.947,0.987-1.374l3.258-4.202l2.434-0.26l-4.292,5.051
				l4.888,6.052l-2.455,0.263l-3.832-4.941l-1.033,1.264v4.199l-1.996,0.213v-16.381l1.996-0.213V303.457z"/>
			<path fill="#FFFFFF" d="M371.566,305.857v-3.576l-6.341,1.982v-2.284l5.417-10.829l4.096-1.279v8.789l1.717-0.536v2.63
				l-1.717,0.537v3.576L371.566,305.857z M371.566,299.652v-3.322c0-0.9,0.045-1.837,0.111-2.826l-0.089,0.027
				c-0.462,1.113-0.837,2.107-1.321,3.204l-1.916,3.875v0.046L371.566,299.652z"/>
		</g>
	</g>
	<g>
	</g>
	<g>
		<path fill="#327DD8" stroke="#327DD8" stroke-miterlimit="10" d="M297.5,232.5v28h0.105c0.469,8,20.408,17.043,44.955,17.043
			c24.546,0,44.484-9.043,44.954-17.043H387.5v-28H297.5z"/>
		<ellipse fill="#4DC3F8" stroke="#FFFFFF" stroke-miterlimit="10" cx="342.561" cy="231.773" rx="44.977" ry="17.383"/>
		<g>
			<path fill="none" d="M387.538,253.234c0,9.6-20.138,17.381-44.978,17.381s-44.977-7.781-44.977-17.381"/>
			<path fill="#FFFFFF" d="M309.802,265.372c0.044-0.748,0.088-1.864,0.088-2.856v-13.497l1.919,0.591v7.014l0.043,0.014
				c0.684-1.035,1.919-1.463,3.639-0.934c2.646,0.814,4.52,3.699,4.498,7.084c0,3.991-2.403,5.235-4.785,4.502
				c-1.543-0.475-2.777-1.479-3.571-3.199l-0.066-0.021l-0.088,1.818L309.802,265.372z M311.809,261.514
				c0,0.254,0.043,0.521,0.088,0.766c0.375,1.523,1.499,2.838,2.91,3.273c2.029,0.624,3.241-0.732,3.241-3.294
				c0-2.237-1.103-4.492-3.175-5.13c-1.323-0.408-2.558,0.158-2.955,1.581c-0.044,0.218-0.109,0.474-0.109,0.797V261.514z"/>
			<path fill="#FFFFFF" d="M322.563,252.433l1.998,0.36v16.38l-1.998-0.36V252.433z"/>
			<path fill="#FFFFFF" d="M337.973,264.98c0,4.131-2.85,5.68-5.539,5.445c-3.01-0.265-5.331-2.684-5.331-6.213
				c0-3.737,2.437-5.716,5.515-5.445C335.813,259.047,337.973,261.566,337.973,264.98z M329.148,264.323
				c0,2.445,1.401,4.414,3.377,4.587c1.931,0.17,3.379-1.526,3.379-4.041c0-1.893-0.942-4.374-3.332-4.584
				C330.182,260.076,329.148,262.201,329.148,264.323z"/>
			<path fill="#FFFFFF" d="M348.521,270.134c-0.53,0.284-1.707,0.667-3.207,0.687c-3.368,0.043-5.561-2.215-5.561-5.629
				c0-3.438,2.354-5.959,6-6.004c1.199-0.016,2.26,0.271,2.814,0.541l-0.462,1.574c-0.484-0.271-1.245-0.515-2.353-0.501
				c-2.562,0.032-3.945,1.941-3.945,4.271c0,2.584,1.66,4.155,3.875,4.128c1.154-0.016,1.916-0.324,2.492-0.586L348.521,270.134z"/>
			<path fill="#FFFFFF" d="M352.898,264.123l0.046-0.005c0.275-0.421,0.665-0.948,0.987-1.374l3.258-4.202l2.434-0.261l-4.292,5.051
				l4.888,6.053l-2.455,0.262l-3.832-4.941l-1.033,1.264v4.199l-1.996,0.214v-16.381l1.996-0.214V264.123z"/>
			<path fill="#FFFFFF" d="M366.238,264.752c0.595,0.137,1.96,0.311,3.325-0.116c1.739-0.544,2.62-1.696,2.62-2.826
				c0-1.477-1.409-1.705-2.885-1.244l-1.365,0.427v-2.515l1.299-0.406c1.123-0.374,2.555-1.26,2.555-2.528
				c0-0.9-0.705-1.349-2.113-0.908c-1.168,0.365-2.4,1.281-2.995,1.836l-0.683-2.324c0.859-0.846,2.576-1.937,4.426-2.515
				c3.061-0.956,4.756,0.198,4.756,2.251c0,1.592-0.858,3.106-2.62,4.303v0.047c1.718-0.215,3.104,0.713,3.104,2.674
				c0,2.654-2.224,5.287-5.856,6.422c-1.85,0.578-3.413,0.56-4.249,0.268L366.238,264.752z"/>
		</g>
	</g>
	<g>
		<path fill="#327DD8" stroke="#327DD8" stroke-miterlimit="10" d="M297.5,192.5v28h0.105c0.469,8,20.408,17.043,44.955,17.043
			c24.546,0,44.484-9.043,44.954-17.043H387.5v-28H297.5z"/>
		<ellipse fill="#4DC3F8" stroke="#FFFFFF" stroke-miterlimit="10" cx="342.561" cy="192.441" rx="44.977" ry="17.381"/>
		<g>
			<path fill="none" d="M387.538,213.9c0,9.6-20.138,17.383-44.978,17.383s-44.977-7.783-44.977-17.383"/>
			<path fill="#FFFFFF" d="M309.802,226.039c0.044-0.748,0.088-1.865,0.088-2.857v-13.496l1.919,0.59v7.014l0.043,0.014
				c0.684-1.035,1.919-1.462,3.639-0.932c2.646,0.814,4.52,3.698,4.498,7.083c0,3.991-2.403,5.235-4.785,4.502
				c-1.543-0.476-2.777-1.479-3.571-3.199l-0.066-0.021l-0.088,1.818L309.802,226.039z M311.809,222.182
				c0,0.253,0.043,0.521,0.088,0.765c0.375,1.522,1.499,2.839,2.91,3.272c2.029,0.625,3.241-0.732,3.241-3.293
				c0-2.238-1.103-4.492-3.175-5.131c-1.323-0.407-2.558,0.158-2.955,1.582c-0.044,0.217-0.109,0.474-0.109,0.797V222.182z"/>
			<path fill="#FFFFFF" d="M322.563,213.1l1.998,0.359v16.381l-1.998-0.359V213.1z"/>
			<path fill="#FFFFFF" d="M337.973,225.648c0,4.129-2.85,5.68-5.539,5.443c-3.01-0.264-5.331-2.682-5.331-6.212
				c0-3.737,2.437-5.716,5.515-5.446C335.813,219.714,337.973,222.233,337.973,225.648z M329.148,224.99
				c0,2.445,1.401,4.414,3.377,4.588c1.931,0.168,3.379-1.527,3.379-4.042c0-1.892-0.942-4.374-3.332-4.583
				C330.182,220.743,329.148,222.867,329.148,224.99z"/>
			<path fill="#FFFFFF" d="M348.521,230.801c-0.53,0.283-1.707,0.668-3.207,0.687c-3.368,0.042-5.561-2.214-5.561-5.629
				c0-3.438,2.354-5.959,6-6.005c1.199-0.015,2.26,0.271,2.814,0.541l-0.462,1.575c-0.484-0.271-1.245-0.515-2.353-0.501
				c-2.562,0.032-3.945,1.941-3.945,4.271c0,2.584,1.66,4.155,3.875,4.127c1.154-0.014,1.916-0.324,2.492-0.584L348.521,230.801z"/>
			<path fill="#FFFFFF" d="M352.898,224.791l0.046-0.006c0.275-0.422,0.665-0.947,0.987-1.375l3.258-4.201l2.434-0.26l-4.292,5.05
				l4.888,6.052l-2.455,0.264l-3.832-4.942l-1.033,1.265v4.198l-1.996,0.214v-16.381l1.996-0.213V224.791z"/>
			<path fill="#FFFFFF" d="M365.645,229.043v-2.123l1.85-2.332c3.126-3.906,4.646-6.066,4.689-7.833
				c0-1.223-0.705-1.972-2.355-1.456c-1.234,0.387-2.313,1.369-3.061,2.203l-0.947-2.219c1.078-1.191,2.752-2.406,4.689-3.012
				c3.236-1.012,5.021,0.415,5.021,3.138c0,2.515-1.739,5.065-3.81,7.65l-1.32,1.566v0.046l5.395-1.686v2.884L365.645,229.043z"/>
		</g>
	</g>
	<g>
		<path fill="#327DD8" stroke="#327DD8" stroke-miterlimit="10" d="M297.5,153.5v28h0.105c0.469,8,20.408,17.043,44.955,17.043
			c24.546,0,44.484-9.043,44.954-17.043H387.5v-28H297.5z"/>
		<ellipse fill="#4DC3F8" stroke="#FFFFFF" stroke-miterlimit="10" cx="342.561" cy="153.107" rx="44.977" ry="17.382"/>
		<g>
			<path fill="none" d="M387.538,174.567c0,9.6-20.138,17.382-44.978,17.382s-44.977-7.782-44.977-17.382"/>
			<path fill="#FFFFFF" d="M309.802,186.706c0.044-0.748,0.088-1.865,0.088-2.857v-13.497l1.919,0.59v7.014l0.043,0.014
				c0.684-1.035,1.919-1.462,3.639-0.933c2.646,0.814,4.52,3.699,4.498,7.083c0,3.991-2.403,5.235-4.785,4.502
				c-1.543-0.475-2.777-1.479-3.571-3.199l-0.066-0.021l-0.088,1.818L309.802,186.706z M311.809,182.848
				c0,0.253,0.043,0.521,0.088,0.765c0.375,1.523,1.499,2.838,2.91,3.273c2.029,0.625,3.241-0.732,3.241-3.293
				c0-2.238-1.103-4.492-3.175-5.13c-1.323-0.408-2.558,0.158-2.955,1.582c-0.044,0.217-0.109,0.474-0.109,0.797V182.848z"/>
			<path fill="#FFFFFF" d="M322.563,173.766l1.998,0.36v16.38l-1.998-0.36V173.766z"/>
			<path fill="#FFFFFF" d="M337.973,186.314c0,4.13-2.85,5.68-5.539,5.444c-3.01-0.265-5.331-2.683-5.331-6.212
				c0-3.737,2.437-5.716,5.515-5.446C335.813,180.38,337.973,182.9,337.973,186.314z M329.148,185.657
				c0,2.445,1.401,4.414,3.377,4.587c1.931,0.169,3.379-1.527,3.379-4.042c0-1.892-0.942-4.374-3.332-4.583
				C330.182,181.41,329.148,183.534,329.148,185.657z"/>
			<path fill="#FFFFFF" d="M348.521,191.467c-0.53,0.284-1.707,0.668-3.207,0.688c-3.368,0.042-5.561-2.215-5.561-5.629
				c0-3.438,2.354-5.959,6-6.004c1.199-0.015,2.26,0.271,2.814,0.541l-0.462,1.575c-0.484-0.271-1.245-0.515-2.353-0.501
				c-2.562,0.032-3.945,1.941-3.945,4.271c0,2.584,1.66,4.155,3.875,4.127c1.154-0.015,1.916-0.324,2.492-0.585L348.521,191.467z"/>
			<path fill="#FFFFFF" d="M352.898,185.457l0.046-0.005c0.275-0.421,0.665-0.948,0.987-1.375l3.258-4.202l2.434-0.26l-4.292,5.05
				l4.888,6.052l-2.455,0.263l-3.832-4.942l-1.033,1.264v4.199l-1.996,0.213v-16.38l1.996-0.213V185.457z"/>
			<path fill="#FFFFFF" d="M369.916,176.492l-0.045,0.014l-2.73,2.215l-0.55-2.458l3.787-3.03l2.774-0.867v14.996l-3.236,1.012
				V176.492z"/>
		</g>
	</g>
</g>
<polyline fill="none" stroke="#4D4D4D" stroke-width="5" stroke-linecap="round" stroke-linejoin="round" stroke-miterlimit="10" points="
	157.5,154 157.5,115.5 342.5,115.5 342.5,153 "/>
<g>
	<path fill="#333333" d="M234.52,224.501v-5.58h30.958v5.58H234.52z M234.52,236.92v-5.58h30.958v5.58H234.52z"/>
</g>
<g>
</g>
<g>
</g>
<g>
</g>
<g>
</g>
<g>
</g>
<g>
</g>
<g>
</g>
<g>
</g>
<g>
</g>
<g>
</g>
<g>
</g>
<g>
</g>
<g>
</g>
<g>
</g>
<g>
</g>
</svg>
