<?xml version="1.0" encoding="utf-8"?>
<!-- Generator: Adobe Illustrator 16.0.3, SVG Export Plug-In . SVG Version: 6.00 Build 0)  -->
<!DOCTYPE svg PUBLIC "-//W3C//DTD SVG 1.1//EN" "http://www.w3.org/Graphics/SVG/1.1/DTD/svg11.dtd">
<svg version="1.1" id="Layer_1" xmlns="http://www.w3.org/2000/svg" xmlns:xlink="http://www.w3.org/1999/xlink" x="0px" y="0px"
	 width="500px" height="380px" viewBox="0 0 500 380" enable-background="new 0 0 500 380" xml:space="preserve">
<path fill="#CCCCCC" d="M500,375.102c0,2.709-2.241,4.898-5.005,4.898H5.004C2.241,380,0,377.811,0,375.102V4.898
	C0,2.189,2.241,0,5.004,0h489.991C497.759,0,500,2.189,500,4.898V375.102z"/>
<g>
	<path fill="#333333" d="M192.721,24.404c1.959-0.32,4.879-0.56,8.119-0.56c3.999,0,6.799,0.6,8.718,2.12
		c1.6,1.28,2.48,3.159,2.48,5.639c0,3.439-2.44,5.799-4.759,6.639v0.12c1.879,0.76,2.919,2.56,3.599,5.039
		c0.84,3.04,1.68,6.559,2.2,7.599h-6.239c-0.44-0.76-1.08-2.959-1.88-6.279c-0.72-3.359-1.879-4.279-4.359-4.319h-1.839V51h-6.039
		V24.404z M198.76,36.002h2.399c3.04,0,4.839-1.52,4.839-3.879c0-2.479-1.68-3.719-4.479-3.759c-1.479,0-2.319,0.12-2.759,0.2
		V36.002z"/>
	<path fill="#333333" d="M223.079,44.081L221.159,51h-6.319l8.239-26.956h7.999L239.436,51h-6.559l-2.08-6.919H223.079z
		 M229.917,39.522l-1.68-5.719c-0.48-1.6-0.96-3.599-1.36-5.199h-0.08c-0.4,1.6-0.8,3.64-1.24,5.199l-1.6,5.719H229.917z"/>
	<path fill="#333333" d="M249.158,24.044V51h-6.119V24.044H249.158z"/>
	<path fill="#333333" d="M254.439,24.404c2.239-0.36,5.158-0.56,8.238-0.56c5.119,0,8.438,0.92,11.038,2.879
		c2.8,2.08,4.56,5.399,4.56,10.158c0,5.159-1.881,8.719-4.48,10.918c-2.839,2.359-7.158,3.479-12.438,3.479
		c-3.159,0-5.398-0.2-6.918-0.4V24.404z M260.558,46.401c0.521,0.12,1.36,0.12,2.12,0.12c5.52,0.04,9.118-2.999,9.118-9.438
		c0.04-5.599-3.239-8.559-8.479-8.559c-1.36,0-2.239,0.12-2.76,0.24V46.401z"/>
	<path fill="#333333" d="M306.756,30.003h-10.078l-0.561,4c0.561-0.08,1.04-0.08,1.68-0.08c2.48,0,5,0.56,6.839,1.88
		c1.96,1.32,3.159,3.479,3.159,6.519c0,4.839-4.158,9.119-11.158,9.119c-3.159,0-5.799-0.72-7.238-1.48l1.08-4.559
		c1.16,0.56,3.52,1.28,5.879,1.28c2.52,0,5.199-1.2,5.199-3.959c0-2.679-2.119-4.319-7.318-4.319c-1.44,0-2.44,0.08-3.52,0.24
		l1.719-13.638h14.318V30.003z"/>
	<path fill="#333333" d="M90.367,77.64c0.624,0.408,1.728,0.84,2.784,0.84c1.536,0,2.256-0.768,2.256-1.728
		c0-1.008-0.6-1.56-2.16-2.136c-2.088-0.744-3.072-1.896-3.072-3.288c0-1.872,1.512-3.408,4.008-3.408
		c1.176,0,2.208,0.336,2.856,0.72l-0.528,1.536c-0.456-0.288-1.296-0.672-2.376-0.672c-1.248,0-1.944,0.72-1.944,1.584
		c0,0.96,0.696,1.392,2.208,1.968c2.016,0.768,3.048,1.776,3.048,3.504c0,2.04-1.584,3.48-4.345,3.48
		c-1.272,0-2.448-0.312-3.264-0.792L90.367,77.64z"/>
	<path fill="#333333" d="M102.703,64.847v3.336h3.024v1.608h-3.024v6.265c0,1.44,0.408,2.256,1.584,2.256
		c0.552,0,0.96-0.072,1.224-0.144l0.096,1.584c-0.408,0.168-1.056,0.288-1.872,0.288c-0.984,0-1.776-0.312-2.28-0.888
		c-0.6-0.624-0.816-1.656-0.816-3.024v-6.336h-1.8v-1.608h1.8v-2.784L102.703,64.847z"/>
	<path fill="#333333" d="M108.103,71.807c0-1.368-0.024-2.544-0.096-3.625h1.848l0.072,2.28h0.096c0.528-1.56,1.8-2.544,3.216-2.544
		c0.24,0,0.408,0.024,0.6,0.072v1.992c-0.216-0.048-0.432-0.072-0.72-0.072c-1.488,0-2.544,1.128-2.832,2.712
		c-0.048,0.288-0.096,0.624-0.096,0.984V79.8h-2.088V71.807z"/>
	<path fill="#333333" d="M118.399,64.918c0.024,0.72-0.504,1.296-1.344,1.296c-0.744,0-1.272-0.576-1.272-1.296
		c0-0.744,0.552-1.32,1.32-1.32C117.895,63.599,118.399,64.174,118.399,64.918z M116.046,79.8V68.183h2.112V79.8H116.046z"/>
	<path fill="#333333" d="M121.662,71.975c0-1.488-0.048-2.688-0.096-3.792h1.896l0.096,1.992h0.048
		c0.864-1.416,2.232-2.256,4.128-2.256c2.808,0,4.92,2.376,4.92,5.904c0,4.176-2.544,6.241-5.28,6.241
		c-1.536,0-2.88-0.672-3.577-1.824h-0.048v6.313h-2.088V71.975z M123.75,75.071c0,0.312,0.048,0.6,0.096,0.864
		c0.384,1.464,1.656,2.472,3.168,2.472c2.232,0,3.528-1.824,3.528-4.488c0-2.328-1.224-4.32-3.456-4.32
		c-1.44,0-2.784,1.032-3.192,2.616c-0.072,0.264-0.144,0.576-0.144,0.864V75.071z"/>
	<path fill="#333333" d="M137.67,64.918c0.024,0.72-0.504,1.296-1.344,1.296c-0.744,0-1.272-0.576-1.272-1.296
		c0-0.744,0.552-1.32,1.32-1.32C137.166,63.599,137.67,64.174,137.67,64.918z M135.318,79.8V68.183h2.112V79.8H135.318z"/>
	<path fill="#333333" d="M140.934,71.327c0-1.2-0.024-2.184-0.096-3.145h1.872l0.12,1.92h0.048c0.576-1.104,1.92-2.184,3.84-2.184
		c1.608,0,4.104,0.96,4.104,4.944V79.8h-2.112v-6.697c0-1.872-0.696-3.432-2.688-3.432c-1.393,0-2.473,0.984-2.833,2.16
		c-0.096,0.264-0.144,0.624-0.144,0.984V79.8h-2.112V71.327z"/>
	<path fill="#333333" d="M164.263,68.183c-0.048,0.84-0.096,1.776-0.096,3.192v6.745c0,2.664-0.528,4.296-1.656,5.305
		c-1.128,1.056-2.76,1.392-4.224,1.392c-1.392,0-2.928-0.336-3.864-0.96l0.528-1.608c0.768,0.48,1.968,0.912,3.408,0.912
		c2.16,0,3.745-1.128,3.745-4.057v-1.296h-0.048c-0.648,1.08-1.896,1.944-3.696,1.944c-2.88,0-4.944-2.448-4.944-5.665
		c0-3.937,2.568-6.168,5.232-6.168c2.016,0,3.12,1.056,3.625,2.016h0.048l0.096-1.752H164.263z M162.078,72.767
		c0-0.36-0.024-0.672-0.12-0.96c-0.384-1.224-1.417-2.232-2.953-2.232c-2.016,0-3.456,1.705-3.456,4.393
		c0,2.28,1.152,4.176,3.432,4.176c1.296,0,2.472-0.816,2.928-2.16c0.12-0.36,0.168-0.768,0.168-1.128V72.767z"/>
	<path fill="#333333" d="M173.597,68.183l1.536,5.905c0.336,1.296,0.648,2.496,0.864,3.696h0.072
		c0.264-1.176,0.648-2.424,1.032-3.672l1.896-5.929h1.776l1.8,5.809c0.432,1.392,0.768,2.616,1.032,3.792h0.072
		c0.192-1.176,0.504-2.4,0.888-3.769l1.656-5.833h2.088L184.566,79.8h-1.92l-1.776-5.544c-0.408-1.296-0.744-2.448-1.032-3.816
		h-0.048c-0.288,1.392-0.648,2.592-1.056,3.84l-1.872,5.521h-1.92l-3.504-11.617H173.597z"/>
	<path fill="#333333" d="M192.773,64.918c0.024,0.72-0.504,1.296-1.344,1.296c-0.744,0-1.272-0.576-1.272-1.296
		c0-0.744,0.552-1.32,1.32-1.32C192.269,63.599,192.773,64.174,192.773,64.918z M190.421,79.8V68.183h2.112V79.8H190.421z"/>
	<path fill="#333333" d="M198.581,64.847v3.336h3.024v1.608h-3.024v6.265c0,1.44,0.408,2.256,1.584,2.256
		c0.552,0,0.96-0.072,1.224-0.144l0.096,1.584c-0.408,0.168-1.056,0.288-1.872,0.288c-0.984,0-1.776-0.312-2.28-0.888
		c-0.6-0.624-0.816-1.656-0.816-3.024v-6.336h-1.8v-1.608h1.8v-2.784L198.581,64.847z"/>
	<path fill="#333333" d="M203.98,62.758h2.112v7.249h0.048c0.336-0.6,0.864-1.128,1.512-1.488c0.624-0.36,1.368-0.6,2.16-0.6
		c1.561,0,4.057,0.96,4.057,4.968V79.8h-2.112v-6.672c0-1.873-0.696-3.457-2.688-3.457c-1.368,0-2.448,0.96-2.833,2.112
		c-0.12,0.288-0.144,0.6-0.144,1.008V79.8h-2.112V62.758z"/>
	<path fill="#333333" d="M222.388,71.975c0-1.488-0.048-2.688-0.096-3.792h1.896l0.096,1.992h0.048
		c0.864-1.416,2.232-2.256,4.128-2.256c2.808,0,4.92,2.376,4.92,5.904c0,4.176-2.544,6.241-5.28,6.241
		c-1.536,0-2.88-0.672-3.577-1.824h-0.048v6.313h-2.088V71.975z M224.477,75.071c0,0.312,0.048,0.6,0.096,0.864
		c0.384,1.464,1.656,2.472,3.168,2.472c2.232,0,3.528-1.824,3.528-4.488c0-2.328-1.224-4.32-3.456-4.32
		c-1.44,0-2.784,1.032-3.192,2.616c-0.072,0.264-0.144,0.576-0.144,0.864V75.071z"/>
	<path fill="#333333" d="M242.477,79.8l-0.168-1.464h-0.072c-0.648,0.912-1.896,1.729-3.552,1.729c-2.353,0-3.553-1.656-3.553-3.336
		c0-2.808,2.497-4.344,6.985-4.32v-0.24c0-0.96-0.264-2.688-2.64-2.688c-1.08,0-2.208,0.336-3.024,0.864l-0.48-1.392
		c0.96-0.624,2.352-1.032,3.816-1.032c3.552,0,4.417,2.424,4.417,4.752v4.344c0,1.008,0.048,1.992,0.192,2.784H242.477z
		 M242.165,73.871c-2.304-0.048-4.92,0.36-4.92,2.616c0,1.368,0.912,2.017,1.992,2.017c1.512,0,2.472-0.96,2.808-1.944
		c0.072-0.216,0.12-0.456,0.12-0.672V73.871z"/>
	<path fill="#333333" d="M247.612,71.807c0-1.368-0.024-2.544-0.096-3.625h1.848l0.072,2.28h0.096c0.528-1.56,1.8-2.544,3.216-2.544
		c0.24,0,0.408,0.024,0.601,0.072v1.992c-0.216-0.048-0.433-0.072-0.72-0.072c-1.488,0-2.545,1.128-2.833,2.712
		c-0.048,0.288-0.096,0.624-0.096,0.984V79.8h-2.088V71.807z"/>
	<path fill="#333333" d="M257.908,64.918c0.023,0.72-0.504,1.296-1.344,1.296c-0.744,0-1.272-0.576-1.272-1.296
		c0-0.744,0.552-1.32,1.319-1.32C257.404,63.599,257.908,64.174,257.908,64.918z M255.556,79.8V68.183h2.112V79.8H255.556z"/>
	<path fill="#333333" d="M263.716,64.847v3.336h3.024v1.608h-3.024v6.265c0,1.44,0.408,2.256,1.584,2.256
		c0.552,0,0.96-0.072,1.224-0.144l0.097,1.584c-0.408,0.168-1.056,0.288-1.872,0.288c-0.984,0-1.776-0.312-2.28-0.888
		c-0.601-0.624-0.815-1.656-0.815-3.024v-6.336h-1.801v-1.608h1.801v-2.784L263.716,64.847z"/>
	<path fill="#333333" d="M270.1,68.183l2.544,6.865c0.265,0.768,0.552,1.68,0.744,2.376h0.048c0.217-0.696,0.456-1.584,0.744-2.424
		l2.305-6.817h2.231l-3.168,8.281c-1.513,3.984-2.544,6.025-3.984,7.273c-1.032,0.912-2.064,1.272-2.593,1.368l-0.527-1.776
		c0.527-0.168,1.225-0.504,1.848-1.032c0.576-0.456,1.297-1.272,1.776-2.352c0.097-0.216,0.168-0.384,0.168-0.504
		c0-0.12-0.048-0.288-0.144-0.552l-4.297-10.705H270.1z"/>
	<path fill="#333333" d="M292.155,79.8l-0.168-1.464h-0.071c-0.648,0.912-1.896,1.729-3.553,1.729c-2.353,0-3.553-1.656-3.553-3.336
		c0-2.808,2.496-4.344,6.984-4.32v-0.24c0-0.96-0.264-2.688-2.64-2.688c-1.08,0-2.208,0.336-3.024,0.864l-0.48-1.392
		c0.961-0.624,2.353-1.032,3.816-1.032c3.553,0,4.417,2.424,4.417,4.752v4.344c0,1.008,0.048,1.992,0.192,2.784H292.155z
		 M291.844,73.871c-2.305-0.048-4.921,0.36-4.921,2.616c0,1.368,0.912,2.017,1.992,2.017c1.513,0,2.472-0.96,2.808-1.944
		c0.072-0.216,0.121-0.456,0.121-0.672V73.871z"/>
	<path fill="#333333" d="M305.571,79.368c-0.552,0.288-1.776,0.672-3.336,0.672c-3.505,0-5.784-2.376-5.784-5.929
		c0-3.576,2.447-6.168,6.24-6.168c1.248,0,2.352,0.312,2.928,0.6l-0.479,1.632c-0.505-0.288-1.296-0.552-2.448-0.552
		c-2.664,0-4.104,1.968-4.104,4.392c0,2.688,1.728,4.345,4.032,4.345c1.2,0,1.992-0.312,2.592-0.576L305.571,79.368z"/>
	<path fill="#333333" d="M308.043,71.807c0-1.368-0.024-2.544-0.096-3.625h1.848l0.072,2.28h0.096
		c0.527-1.56,1.801-2.544,3.217-2.544c0.239,0,0.407,0.024,0.6,0.072v1.992c-0.217-0.048-0.432-0.072-0.721-0.072
		c-1.488,0-2.544,1.128-2.832,2.712c-0.048,0.288-0.096,0.624-0.096,0.984V79.8h-2.088V71.807z"/>
	<path fill="#333333" d="M326.164,73.896c0,4.296-2.977,6.168-5.785,6.168c-3.145,0-5.568-2.304-5.568-5.977
		c0-3.888,2.544-6.168,5.76-6.168C323.907,67.919,326.164,70.343,326.164,73.896z M316.947,74.015c0,2.544,1.463,4.464,3.527,4.464
		c2.017,0,3.529-1.896,3.529-4.512c0-1.968-0.984-4.464-3.48-4.464S316.947,71.807,316.947,74.015z"/>
	<path fill="#333333" d="M328.539,77.64c0.623,0.408,1.728,0.84,2.783,0.84c1.537,0,2.256-0.768,2.256-1.728
		c0-1.008-0.6-1.56-2.16-2.136c-2.088-0.744-3.072-1.896-3.072-3.288c0-1.872,1.513-3.408,4.009-3.408
		c1.177,0,2.208,0.336,2.856,0.72l-0.527,1.536c-0.457-0.288-1.297-0.672-2.377-0.672c-1.248,0-1.944,0.72-1.944,1.584
		c0,0.96,0.696,1.392,2.208,1.968c2.017,0.768,3.049,1.776,3.049,3.504c0,2.04-1.584,3.48-4.345,3.48
		c-1.272,0-2.448-0.312-3.265-0.792L328.539,77.64z"/>
	<path fill="#333333" d="M338.043,77.64c0.623,0.408,1.728,0.84,2.783,0.84c1.537,0,2.256-0.768,2.256-1.728
		c0-1.008-0.6-1.56-2.16-2.136c-2.088-0.744-3.072-1.896-3.072-3.288c0-1.872,1.513-3.408,4.009-3.408
		c1.177,0,2.208,0.336,2.856,0.72l-0.527,1.536c-0.457-0.288-1.297-0.672-2.377-0.672c-1.248,0-1.944,0.72-1.944,1.584
		c0,0.96,0.696,1.392,2.208,1.968c2.017,0.768,3.049,1.776,3.049,3.504c0,2.04-1.584,3.48-4.345,3.48
		c-1.272,0-2.448-0.312-3.265-0.792L338.043,77.64z"/>
	<path fill="#333333" d="M362.955,62.758v14.041c0,1.032,0.023,2.208,0.096,3h-1.896l-0.096-2.016h-0.048
		c-0.647,1.296-2.063,2.28-3.96,2.28c-2.809,0-4.969-2.376-4.969-5.905c-0.023-3.864,2.376-6.24,5.209-6.24
		c1.775,0,2.976,0.84,3.504,1.776h0.048v-6.937H362.955z M360.843,72.911c0-0.264-0.024-0.624-0.097-0.888
		c-0.312-1.344-1.463-2.448-3.048-2.448c-2.185,0-3.479,1.92-3.479,4.489c0,2.352,1.151,4.296,3.432,4.296
		c1.416,0,2.713-0.936,3.096-2.521c0.072-0.288,0.097-0.576,0.097-0.912V72.911z"/>
	<path fill="#333333" d="M366.458,71.807c0-1.368-0.024-2.544-0.096-3.625h1.849l0.071,2.28h0.097c0.527-1.56,1.8-2.544,3.216-2.544
		c0.239,0,0.408,0.024,0.601,0.072v1.992c-0.217-0.048-0.433-0.072-0.721-0.072c-1.488,0-2.544,1.128-2.832,2.712
		c-0.049,0.288-0.096,0.624-0.096,0.984V79.8h-2.089V71.807z"/>
	<path fill="#333333" d="M376.754,64.918c0.023,0.72-0.504,1.296-1.344,1.296c-0.744,0-1.272-0.576-1.272-1.296
		c0-0.744,0.552-1.32,1.319-1.32C376.25,63.599,376.754,64.174,376.754,64.918z M374.401,79.8V68.183h2.112V79.8H374.401z"/>
	<path fill="#333333" d="M380.834,68.183l2.28,6.529c0.384,1.056,0.696,2.016,0.937,2.976h0.071c0.265-0.96,0.601-1.92,0.984-2.976
		l2.256-6.529h2.208L385.01,79.8h-2.016l-4.416-11.617H380.834z"/>
	<path fill="#333333" d="M392.498,74.375c0.047,2.856,1.871,4.032,3.984,4.032c1.512,0,2.424-0.264,3.216-0.6l0.36,1.512
		c-0.744,0.336-2.017,0.72-3.865,0.72c-3.576,0-5.712-2.353-5.712-5.857c0-3.504,2.063-6.264,5.448-6.264
		c3.793,0,4.801,3.336,4.801,5.472c0,0.432-0.049,0.768-0.072,0.984H392.498z M398.689,72.863c0.025-1.344-0.551-3.433-2.928-3.433
		c-2.137,0-3.072,1.968-3.24,3.433H398.689z"/>
	<path fill="#333333" d="M403.058,77.64c0.624,0.408,1.728,0.84,2.784,0.84c1.536,0,2.256-0.768,2.256-1.728
		c0-1.008-0.6-1.56-2.16-2.136c-2.088-0.744-3.072-1.896-3.072-3.288c0-1.872,1.512-3.408,4.008-3.408
		c1.177,0,2.209,0.336,2.857,0.72l-0.528,1.536c-0.456-0.288-1.296-0.672-2.376-0.672c-1.248,0-1.945,0.72-1.945,1.584
		c0,0.96,0.697,1.392,2.209,1.968c2.016,0.768,3.049,1.776,3.049,3.504c0,2.04-1.585,3.48-4.346,3.48
		c-1.271,0-2.447-0.312-3.264-0.792L403.058,77.64z"/>
</g>
<g>
	<path fill="#999999" stroke="#999999" stroke-miterlimit="10" d="M12.5,153.5v173l0,0c0.521,9,23.034,18.938,50.308,18.938
		c27.273,0,49.171-9.938,49.692-18.938l0,0v-173H12.5z"/>
	<ellipse fill="#E6E6E6" stroke="#FFFFFF" stroke-miterlimit="10" cx="62.808" cy="153.038" rx="49.975" ry="19.313"/>
	<g>
		<path fill="none" d="M112.783,318.883c0,10.666-22.375,19.313-49.976,19.313c-27.6,0-49.974-8.646-49.974-19.313"/>
		<path fill="#FFFFFF" d="M46.315,324.404v10.533c0,0.773,0.018,1.659,0.071,2.262l-1.402-0.239l-0.071-1.524l-0.036-0.006
			c-0.479,0.891-1.526,1.449-2.928,1.209c-2.076-0.355-3.673-2.411-3.673-5.058c-0.018-2.901,1.757-4.381,3.851-4.022
			c1.313,0.225,2.2,1.006,2.591,1.775l0.036,0.006v-5.203L46.315,324.404z M44.754,331.753c0-0.198-0.018-0.472-0.071-0.679
			c-0.23-1.047-1.083-2.021-2.253-2.222c-1.615-0.276-2.573,1-2.573,2.927c0,1.764,0.852,3.369,2.538,3.657
			c1.047,0.179,2.005-0.359,2.289-1.499c0.053-0.207,0.071-0.42,0.071-0.672V331.753z"/>
		<path fill="#FFFFFF" d="M48.921,331.455c0-1.026-0.018-1.91-0.072-2.727l1.379,0.135l0.054,1.715l0.072,0.008
			c0.394-1.133,1.344-1.778,2.4-1.676c0.179,0.018,0.305,0.048,0.448,0.098v1.494c-0.161-0.051-0.322-0.085-0.537-0.105
			c-1.111-0.108-1.899,0.662-2.114,1.829c-0.036,0.212-0.072,0.461-0.072,0.731v4.645l-1.559-0.15V331.455z"/>
		<path fill="#FFFFFF" d="M56.634,326.889c0.018,0.541-0.377,0.951-1.007,0.917c-0.557-0.03-0.953-0.484-0.953-1.024
			c0-0.559,0.414-0.968,0.989-0.936C56.256,325.878,56.634,326.331,56.634,326.889z M54.872,337.955v-8.715l1.582,0.088v8.715
			L54.872,337.955z"/>
		<path fill="#FFFFFF" d="M59.679,329.463l1.71,4.908c0.288,0.793,0.522,1.516,0.702,2.236h0.054
			c0.198-0.719,0.45-1.438,0.738-2.229l1.693-4.887l1.656,0.01l-3.421,8.693l-1.513-0.008l-3.313-8.734L59.679,329.463z"/>
		<path fill="#FFFFFF" d="M68.418,334.027c0.036,2.141,1.401,2.939,2.981,2.843c1.131-0.069,1.814-0.31,2.407-0.597l0.269,1.117
			c-0.557,0.286-1.508,0.633-2.891,0.717c-2.676,0.164-4.274-1.503-4.274-4.131c0-2.629,1.544-4.795,4.077-4.949
			c2.837-0.174,3.592,2.283,3.592,3.885c0,0.324-0.036,0.579-0.054,0.742L68.418,334.027z M73.052,332.609
			c0.018-1.009-0.413-2.549-2.191-2.44c-1.599,0.099-2.299,1.617-2.425,2.724L73.052,332.609z"/>
		<path fill="#FFFFFF" d="M83.219,326.291l-0.036,0.006l-2.003,1.452l-0.301-1.153l2.518-1.813l1.33-0.234v11.703l-1.507,0.266
			V326.291z"/>
	</g>
	<g>
		<path fill="#009245" stroke="#009245" stroke-miterlimit="10" d="M17.5,271.5v28h0.106c0.469,8,20.408,17.043,44.954,17.043
			s44.485-9.043,44.955-17.043H107.5v-28H17.5z"/>
		<ellipse fill="#00FF00" stroke="#FFFFFF" stroke-miterlimit="10" cx="62.561" cy="271.107" rx="44.977" ry="17.382"/>
		<g>
			<path fill="none" d="M107.538,292.567c0,9.6-20.137,17.382-44.978,17.382c-24.84,0-44.977-7.782-44.977-17.382"/>
			<path fill="#FFFFFF" d="M22.146,293.18c0-1.431-0.041-2.605-0.082-3.688l1.619,0.838l0.082,1.958l0.041,0.021
				c0.738-0.979,1.906-1.181,3.525-0.342c2.397,1.243,4.201,4.461,4.201,7.854c0,4.014-2.172,4.872-4.508,3.662
				c-1.312-0.68-2.459-1.921-3.053-3.336l-0.041-0.021v6.067l-1.783-0.924V293.18z M23.929,297.08c0,0.299,0.041,0.598,0.082,0.873
				c0.328,1.576,1.414,3.108,2.705,3.777c1.906,0.988,3.012-0.191,3.012-2.753c0-2.237-1.045-4.694-2.951-5.683
				c-1.229-0.637-2.377-0.239-2.726,1.103c-0.062,0.222-0.123,0.49-0.123,0.767V297.08z"/>
			<path fill="#FFFFFF" d="M40.07,307.656l-0.156-1.447l-0.067-0.017c-0.604,0.724-1.766,1.212-3.309,0.819
				c-2.191-0.559-3.309-2.436-3.309-4.05c0-2.699,2.325-3.584,6.505-2.497v-0.23c0-0.923-0.246-2.646-2.459-3.21
				c-1.006-0.256-2.057-0.2-2.817,0.114l-0.447-1.453c0.894-0.371,2.19-0.434,3.554-0.086c3.309,0.842,4.113,3.377,4.113,5.615
				v4.176c0,0.969,0.044,1.926,0.179,2.721L40.07,307.656z M39.78,301.884c-2.146-0.593-4.583-0.82-4.583,1.349
				c0,1.314,0.85,2.154,1.855,2.41c1.408,0.358,2.302-0.337,2.615-1.203c0.067-0.19,0.112-0.41,0.112-0.617V301.884z"/>
			<path fill="#FFFFFF" d="M44.932,300.902c0-1.315-0.023-2.449-0.091-3.497l1.759,0.251l0.068,2.201l0.092,0.013
				c0.502-1.429,1.713-2.202,3.061-2.01c0.229,0.032,0.389,0.078,0.571,0.15v1.915c-0.206-0.076-0.411-0.128-0.686-0.167
				c-1.416-0.202-2.421,0.739-2.695,2.224c-0.045,0.271-0.091,0.587-0.091,0.933v5.952l-1.987-0.282V300.902z"/>
			<path fill="#FFFFFF" d="M54.774,295.393c0.023,0.693-0.483,1.207-1.289,1.144c-0.713-0.056-1.219-0.649-1.219-1.342
				c0-0.716,0.529-1.228,1.266-1.169C54.291,294.085,54.774,294.677,54.774,295.393z M52.519,309.518v-11.166l2.025,0.16v11.166
				L52.519,309.518z"/>
			<path fill="#FFFFFF" d="M60.342,295.553v3.207l2.907,0.063v1.545l-2.907-0.061v6.021c0,1.384,0.392,2.177,1.522,2.2
				c0.531,0.012,0.923-0.05,1.177-0.113l0.092,1.524c-0.392,0.153-1.015,0.256-1.799,0.239c-0.946-0.021-1.708-0.337-2.192-0.9
				c-0.577-0.612-0.785-1.608-0.785-2.923v-6.092l-1.73-0.036v-1.546l1.73,0.037v-2.677L60.342,295.553z"/>
			<path fill="#FFFFFF" d="M66.475,298.757l2.442,6.452c0.253,0.724,0.53,1.584,0.714,2.242l0.046-0.003
				c0.207-0.682,0.438-1.549,0.714-2.372l2.212-6.685l2.143-0.128l-3.042,8.141c-1.452,3.916-2.442,5.937-3.825,7.219
				c-0.991,0.936-1.981,1.341-2.488,1.463l-0.507-1.677c0.507-0.191,1.175-0.554,1.774-1.098c0.553-0.472,1.244-1.297,1.705-2.362
				c0.092-0.213,0.161-0.379,0.161-0.494s-0.046-0.274-0.138-0.522l-4.124-10.044L66.475,298.757z"/>
			<path fill="#FFFFFF" d="M80.975,308.621c0.045-0.748,0.09-2.121,0.09-3.39v-13.013l3.41-0.825v6.437l0.045-0.011
				c0.65-1.126,1.794-2.026,3.319-2.396c2.625-0.636,4.554,1.135,4.531,4.602c0,4.061-2.512,6.699-5.024,7.307
				c-1.279,0.311-2.512,0.125-3.297-1.023l-0.045,0.011l-0.135,1.602L80.975,308.621z M84.475,302.975
				c0,0.231,0.022,0.434,0.067,0.607c0.225,0.892,1.01,1.416,1.997,1.178c1.458-0.354,2.355-1.725,2.355-3.754
				c0-1.754-0.763-2.953-2.355-2.568c-0.919,0.223-1.772,1.145-1.997,2.215c-0.044,0.218-0.067,0.432-0.067,0.662V302.975z"/>
			<path fill="#FFFFFF" d="M99.567,302.46v-3.576l-5.875,3.103v-2.284l5.019-11.786l3.794-2.004v8.79l1.591-0.841v2.631l-1.591,0.84
				v3.576L99.567,302.46z M99.567,296.254v-3.322c0-0.9,0.041-1.845,0.102-2.846l-0.082,0.043c-0.429,1.195-0.775,2.255-1.224,3.438
				l-1.775,4.214v0.046L99.567,296.254z"/>
		</g>
	</g>
	<g>
	</g>
	<g>
		<path fill="#327DD8" stroke="#327DD8" stroke-miterlimit="10" d="M17.5,232.5v28h0.106c0.469,8,20.408,17.043,44.954,17.043
			s44.485-9.043,44.955-17.043H107.5v-28H17.5z"/>
		<ellipse fill="#4DC3F8" stroke="#FFFFFF" stroke-miterlimit="10" cx="62.561" cy="231.773" rx="44.977" ry="17.383"/>
		<g>
			<path fill="none" d="M107.538,253.234c0,9.6-20.137,17.381-44.978,17.381c-24.84,0-44.977-7.781-44.977-17.381"/>
			<path fill="#FFFFFF" d="M24.263,262.73c0.042-0.742,0.085-1.854,0.085-2.847v-13.497l1.838,0.807v7.014l0.042,0.018
				c0.655-0.958,1.838-1.247,3.487-0.524c2.536,1.111,4.333,4.206,4.311,7.588c0,3.991-2.303,4.966-4.586,3.966
				c-1.479-0.648-2.663-1.79-3.423-3.6l-0.063-0.028l-0.084,1.809L24.263,262.73z M26.187,259.098c0,0.254,0.042,0.526,0.084,0.775
				c0.359,1.564,1.437,3.006,2.79,3.6c1.944,0.852,3.107-0.369,3.107-2.93c0-2.238-1.057-4.617-3.043-5.487
				c-1.268-0.556-2.452-0.128-2.832,1.251c-0.042,0.212-0.105,0.461-0.105,0.784V259.098z"/>
			<path fill="#FFFFFF" d="M36.605,251.058l1.966,0.507v16.381l-1.966-0.508V251.058z"/>
			<path fill="#FFFFFF" d="M51.884,264.592c0,4.13-2.831,5.512-5.501,5.117c-2.99-0.441-5.296-2.998-5.296-6.527
				c0-3.738,2.42-5.572,5.479-5.12C49.738,258.53,51.884,261.178,51.884,264.592z M43.118,263.412c0,2.445,1.393,4.498,3.356,4.787
				c1.917,0.283,3.355-1.326,3.355-3.842c0-1.892-0.936-4.43-3.31-4.779C44.146,259.227,43.118,261.29,43.118,263.412z"/>
			<path fill="#FFFFFF" d="M62.417,270.289c-0.53,0.256-1.706,0.578-3.205,0.519c-3.366-0.134-5.557-2.505-5.557-5.919
				c0-3.438,2.352-5.836,5.995-5.691c1.199,0.047,2.26,0.389,2.813,0.688l-0.461,1.551c-0.484-0.296-1.245-0.58-2.352-0.623
				c-2.559-0.102-3.942,1.734-3.942,4.064c0,2.584,1.66,4.242,3.874,4.33c1.152,0.046,1.914-0.225,2.49-0.455L62.417,270.289z"/>
			<path fill="#FFFFFF" d="M66.817,264.508l0.046-0.002c0.277-0.406,0.668-0.912,0.991-1.32l3.272-4.02l2.442-0.125l-4.309,4.812
				l4.908,6.325l-2.465,0.125l-3.848-5.156l-1.037,1.207v4.199l-2.004,0.102v-16.381l2.004-0.102V264.508z"/>
			<path fill="#FFFFFF" d="M80.252,265.918c0.608,0.188,2.004,0.478,3.4,0.168c1.779-0.396,2.68-1.473,2.68-2.604
				c0-1.477-1.441-1.825-2.95-1.49l-1.396,0.311v-2.515l1.329-0.296c1.148-0.277,2.612-1.041,2.612-2.311
				c0-0.899-0.721-1.408-2.162-1.088c-1.194,0.266-2.455,1.076-3.063,1.58l-0.698-2.383c0.878-0.771,2.635-1.716,4.527-2.137
				c3.131-0.695,4.865,0.604,4.865,2.656c0,1.593-0.878,3.033-2.68,4.08v0.047c1.756-0.068,3.175,0.979,3.175,2.939
				c0,2.652-2.275,5.096-5.991,5.922c-1.892,0.42-3.491,0.268-4.347-0.096L80.252,265.918z"/>
			<path fill="#FFFFFF" d="M98.411,263.776l-0.189-1.045l-0.063,0.028c-0.672,1.205-1.723,2.167-2.941,2.72
				c-2.08,0.944-3.32-0.154-3.32-1.954c0-2.93,2.395-5.424,6.03-7.051v-0.162c0-0.6-0.294-1.319-1.87-0.604
				c-1.05,0.478-2.164,1.374-2.836,2.142l-0.588-1.994c0.714-0.763,2.122-1.955,3.992-2.805c3.425-1.555,4.518,0.165,4.518,2.818
				v3.922c0,1.084,0.042,2.104,0.147,2.679L98.411,263.776z M98.032,258.619c-1.681,0.739-2.983,1.77-2.983,3.13
				c0,0.899,0.546,1.091,1.26,0.767c0.799-0.363,1.45-1.235,1.66-2.046c0.042-0.204,0.063-0.421,0.063-0.628V258.619z"/>
		</g>
	</g>
	<g>
		<path fill="#327DD8" stroke="#327DD8" stroke-miterlimit="10" d="M17.5,192.5v28h0.106c0.469,8,20.408,17.043,44.954,17.043
			s44.485-9.043,44.955-17.043H107.5v-28H17.5z"/>
		<ellipse fill="#4DC3F8" stroke="#FFFFFF" stroke-miterlimit="10" cx="62.561" cy="192.441" rx="44.977" ry="17.381"/>
		<g>
			<path fill="none" d="M107.538,213.9c0,9.6-20.137,17.383-44.978,17.383c-24.84,0-44.977-7.783-44.977-17.383"/>
			<path fill="#FFFFFF" d="M24.263,223.398c0.042-0.743,0.085-1.855,0.085-2.848v-13.496l1.838,0.805v7.014l0.042,0.02
				c0.655-0.959,1.838-1.248,3.487-0.525c2.536,1.111,4.333,4.206,4.311,7.588c0,3.992-2.303,4.967-4.586,3.966
				c-1.479-0.648-2.663-1.79-3.423-3.601l-0.063-0.027l-0.084,1.809L24.263,223.398z M26.187,219.766
				c0,0.253,0.042,0.525,0.084,0.774c0.359,1.565,1.437,3.007,2.79,3.599c1.944,0.853,3.107-0.368,3.107-2.93
				c0-2.237-1.057-4.615-3.043-5.486c-1.268-0.556-2.452-0.129-2.832,1.251c-0.042,0.212-0.105,0.461-0.105,0.784V219.766z"/>
			<path fill="#FFFFFF" d="M36.605,211.725l1.966,0.508v16.381l-1.966-0.508V211.725z"/>
			<path fill="#FFFFFF" d="M51.884,225.26c0,4.129-2.831,5.51-5.501,5.115c-2.99-0.441-5.296-2.996-5.296-6.526
				c0-3.737,2.42-5.571,5.479-5.12C49.738,219.197,51.884,221.845,51.884,225.26z M43.118,224.08c0,2.445,1.393,4.496,3.356,4.787
				c1.917,0.283,3.355-1.328,3.355-3.842c0-1.893-0.936-4.43-3.31-4.781C44.146,219.895,43.118,221.957,43.118,224.08z"/>
			<path fill="#FFFFFF" d="M62.417,230.955c-0.53,0.256-1.706,0.578-3.205,0.52c-3.366-0.134-5.557-2.505-5.557-5.92
				c0-3.438,2.352-5.836,5.995-5.691c1.199,0.049,2.26,0.391,2.813,0.689l-0.461,1.551c-0.484-0.297-1.245-0.58-2.352-0.625
				c-2.559-0.102-3.942,1.736-3.942,4.066c0,2.584,1.66,4.241,3.874,4.329c1.152,0.046,1.914-0.224,2.49-0.454L62.417,230.955z"/>
			<path fill="#FFFFFF" d="M66.817,225.174l0.046-0.002c0.277-0.406,0.668-0.91,0.991-1.319l3.272-4.02l2.442-0.124l-4.309,4.811
				l4.908,6.324l-2.465,0.127l-3.848-5.156l-1.037,1.205v4.199l-2.004,0.103v-16.38l2.004-0.104V225.174z"/>
			<path fill="#FFFFFF" d="M79.644,230.158v-2.123l1.892-2.174c3.198-3.641,4.752-5.67,4.797-7.434c0-1.223-0.721-2.031-2.41-1.656
				c-1.261,0.28-2.365,1.172-3.13,1.941l-0.969-2.299c1.104-1.1,2.815-2.172,4.797-2.612c3.311-0.735,5.135,0.843,5.135,3.565
				c0,2.515-1.779,4.918-3.896,7.326l-1.352,1.453v0.047l5.518-1.227v2.884L79.644,230.158z"/>
			<path fill="#FFFFFF" d="M98.411,224.443l-0.189-1.045l-0.063,0.029c-0.672,1.205-1.723,2.166-2.941,2.719
				c-2.08,0.944-3.32-0.154-3.32-1.953c0-2.931,2.395-5.426,6.03-7.052v-0.161c0-0.601-0.294-1.32-1.87-0.605
				c-1.05,0.477-2.164,1.375-2.836,2.141l-0.588-1.993c0.714-0.763,2.122-1.956,3.992-2.804c3.425-1.555,4.518,0.164,4.518,2.817
				v3.922c0,1.085,0.042,2.104,0.147,2.679L98.411,224.443z M98.032,219.285c-1.681,0.74-2.983,1.77-2.983,3.131
				c0,0.9,0.546,1.09,1.26,0.766c0.799-0.361,1.45-1.234,1.66-2.045c0.042-0.203,0.063-0.421,0.063-0.629V219.285z"/>
		</g>
	</g>
	<g>
		<path fill="#327DD8" stroke="#327DD8" stroke-miterlimit="10" d="M17.5,153.5v28h0.106c0.469,8,20.408,17.043,44.954,17.043
			s44.485-9.043,44.955-17.043H107.5v-28H17.5z"/>
		<ellipse fill="#4DC3F8" stroke="#FFFFFF" stroke-miterlimit="10" cx="62.561" cy="153.107" rx="44.977" ry="17.382"/>
		<g>
			<path fill="none" d="M107.538,174.567c0,9.6-20.137,17.382-44.978,17.382c-24.84,0-44.977-7.782-44.977-17.382"/>
			<path fill="#FFFFFF" d="M24.263,184.064c0.042-0.743,0.085-1.855,0.085-2.847v-13.497l1.838,0.806v7.014l0.042,0.019
				c0.655-0.958,1.838-1.248,3.487-0.525c2.536,1.111,4.333,4.206,4.311,7.588c0,3.992-2.303,4.966-4.586,3.966
				c-1.479-0.648-2.663-1.79-3.423-3.6l-0.063-0.028l-0.084,1.809L24.263,184.064z M26.187,180.432c0,0.253,0.042,0.526,0.084,0.775
				c0.359,1.565,1.437,3.006,2.79,3.599c1.944,0.852,3.107-0.369,3.107-2.93c0-2.238-1.057-4.616-3.043-5.487
				c-1.268-0.556-2.452-0.128-2.832,1.251c-0.042,0.212-0.105,0.461-0.105,0.784V180.432z"/>
			<path fill="#FFFFFF" d="M36.605,172.391l1.966,0.507v16.381l-1.966-0.508V172.391z"/>
			<path fill="#FFFFFF" d="M51.884,185.926c0,4.129-2.831,5.511-5.501,5.116c-2.99-0.441-5.296-2.997-5.296-6.527
				c0-3.738,2.42-5.572,5.479-5.12C49.738,179.864,51.884,182.511,51.884,185.926z M43.118,184.746c0,2.445,1.393,4.497,3.356,4.787
				c1.917,0.283,3.355-1.327,3.355-3.842c0-1.892-0.936-4.43-3.31-4.78S43.118,182.624,43.118,184.746z"/>
			<path fill="#FFFFFF" d="M62.417,191.622c-0.53,0.256-1.706,0.578-3.205,0.519c-3.366-0.133-5.557-2.504-5.557-5.919
				c0-3.438,2.352-5.836,5.995-5.691c1.199,0.048,2.26,0.39,2.813,0.688l-0.461,1.551c-0.484-0.296-1.245-0.58-2.352-0.624
				c-2.559-0.102-3.942,1.735-3.942,4.065c0,2.584,1.66,4.242,3.874,4.33c1.152,0.046,1.914-0.224,2.49-0.455L62.417,191.622z"/>
			<path fill="#FFFFFF" d="M66.817,185.841l0.046-0.002c0.277-0.406,0.668-0.911,0.991-1.32l3.272-4.02l2.442-0.125l-4.309,4.811
				l4.908,6.325l-2.465,0.126l-3.848-5.156l-1.037,1.206v4.199l-2.004,0.103v-16.381l2.004-0.103V185.841z"/>
			<path fill="#FFFFFF" d="M84.013,177.972l-0.045,0.01l-2.792,1.982l-0.563-2.505l3.874-2.707l2.838-0.63v14.996l-3.311,0.736
				V177.972z"/>
			<path fill="#FFFFFF" d="M98.411,185.11l-0.189-1.045l-0.063,0.029c-0.672,1.205-1.723,2.167-2.941,2.719
				c-2.08,0.944-3.32-0.154-3.32-1.954c0-2.93,2.395-5.425,6.03-7.051v-0.162c0-0.6-0.294-1.32-1.87-0.605
				c-1.05,0.477-2.164,1.375-2.836,2.141l-0.588-1.994c0.714-0.763,2.122-1.956,3.992-2.804c3.425-1.555,4.518,0.165,4.518,2.818
				v3.922c0,1.084,0.042,2.104,0.147,2.679L98.411,185.11z M98.032,179.952c-1.681,0.74-2.983,1.77-2.983,3.13
				c0,0.9,0.546,1.09,1.26,0.766c0.799-0.362,1.45-1.235,1.66-2.045c0.042-0.204,0.063-0.421,0.063-0.628V179.952z"/>
		</g>
	</g>
</g>
<g>
	<path fill="#999999" stroke="#999999" stroke-miterlimit="10" d="M137.5,153.5v173l0,0c0.521,9,23.034,18.938,50.308,18.938
		c27.273,0,49.171-9.938,49.692-18.938l0,0v-173H137.5z"/>
	<ellipse fill="#E6E6E6" stroke="#FFFFFF" stroke-miterlimit="10" cx="187.808" cy="153.038" rx="49.975" ry="19.313"/>
	<g>
		<path fill="none" d="M237.783,318.883c0,10.666-22.375,19.313-49.976,19.313c-27.6,0-49.974-8.646-49.974-19.313"/>
		<path fill="#FFFFFF" d="M171.315,324.404v10.533c0,0.773,0.018,1.659,0.071,2.262l-1.402-0.239l-0.071-1.524l-0.036-0.006
			c-0.479,0.891-1.526,1.449-2.928,1.209c-2.076-0.355-3.673-2.411-3.673-5.058c-0.018-2.901,1.757-4.381,3.851-4.022
			c1.313,0.225,2.2,1.006,2.591,1.775l0.036,0.006v-5.203L171.315,324.404z M169.754,331.753c0-0.198-0.018-0.472-0.071-0.679
			c-0.23-1.047-1.083-2.021-2.253-2.222c-1.615-0.276-2.573,1-2.573,2.927c0,1.764,0.852,3.369,2.538,3.657
			c1.047,0.179,2.005-0.359,2.289-1.499c0.053-0.207,0.071-0.42,0.071-0.672V331.753z"/>
		<path fill="#FFFFFF" d="M173.921,331.455c0-1.026-0.018-1.91-0.072-2.727l1.379,0.135l0.054,1.715l0.072,0.008
			c0.394-1.133,1.344-1.778,2.4-1.676c0.179,0.018,0.305,0.048,0.448,0.098v1.494c-0.161-0.051-0.322-0.085-0.537-0.105
			c-1.111-0.108-1.899,0.662-2.114,1.829c-0.036,0.212-0.072,0.461-0.072,0.731v4.645l-1.559-0.15V331.455z"/>
		<path fill="#FFFFFF" d="M181.634,326.889c0.018,0.541-0.377,0.951-1.007,0.917c-0.557-0.03-0.953-0.484-0.953-1.024
			c0-0.559,0.414-0.968,0.989-0.936C181.256,325.878,181.634,326.331,181.634,326.889z M179.872,337.955v-8.715l1.582,0.088v8.715
			L179.872,337.955z"/>
		<path fill="#FFFFFF" d="M184.679,329.463l1.71,4.908c0.288,0.793,0.522,1.516,0.702,2.236h0.054
			c0.198-0.719,0.45-1.438,0.738-2.229l1.693-4.887l1.656,0.01l-3.421,8.693l-1.513-0.008l-3.313-8.734L184.679,329.463z"/>
		<path fill="#FFFFFF" d="M193.418,334.027c0.036,2.141,1.401,2.939,2.981,2.843c1.131-0.069,1.814-0.31,2.407-0.597l0.269,1.117
			c-0.557,0.286-1.508,0.633-2.891,0.717c-2.676,0.164-4.274-1.503-4.274-4.131c0-2.629,1.544-4.795,4.077-4.949
			c2.837-0.174,3.592,2.283,3.592,3.885c0,0.324-0.036,0.579-0.054,0.742L193.418,334.027z M198.052,332.609
			c0.018-1.009-0.413-2.549-2.191-2.44c-1.599,0.099-2.299,1.617-2.425,2.724L198.052,332.609z"/>
		<path fill="#FFFFFF" d="M204.832,337.115v-0.973l1.224-1.422c2.943-3.363,4.273-5.111,4.291-6.879
			c0-1.188-0.567-2.186-2.287-1.883c-1.046,0.185-1.915,0.878-2.447,1.422l-0.497-1.028c0.798-0.825,1.933-1.529,3.263-1.765
			c2.482-0.438,3.528,1.106,3.528,2.781c0,2.16-1.542,4.18-3.972,6.984l-0.922,1.027v0.035l5.177-0.913v1.314L204.832,337.115z"/>
	</g>
	<g>
		<path fill="#327DD8" stroke="#327DD8" stroke-miterlimit="10" d="M142.5,271.5v28h0.106c0.469,8,20.408,17.043,44.954,17.043
			s44.485-9.043,44.955-17.043H232.5v-28H142.5z"/>
		<ellipse fill="#4DC3F8" stroke="#FFFFFF" stroke-miterlimit="10" cx="187.561" cy="271.107" rx="44.977" ry="17.382"/>
		<g>
			<path fill="none" d="M232.538,292.567c0,9.6-20.137,17.382-44.978,17.382c-24.84,0-44.977-7.782-44.977-17.382"/>
			<path fill="#FFFFFF" d="M149.263,302.064c0.042-0.742,0.085-1.855,0.085-2.848v-13.496l1.838,0.806v7.014l0.042,0.019
				c0.655-0.959,1.838-1.248,3.487-0.525c2.536,1.111,4.333,4.207,4.311,7.588c0,3.992-2.303,4.967-4.586,3.967
				c-1.479-0.648-2.663-1.791-3.423-3.601l-0.063-0.028l-0.084,1.809L149.263,302.064z M151.187,298.432
				c0,0.254,0.042,0.525,0.084,0.775c0.359,1.564,1.437,3.006,2.79,3.599c1.944,0.853,3.107-0.368,3.107-2.93
				c0-2.237-1.057-4.616-3.043-5.487c-1.268-0.555-2.452-0.128-2.832,1.252c-0.042,0.211-0.105,0.461-0.105,0.783V298.432z"/>
			<path fill="#FFFFFF" d="M161.605,290.391l1.966,0.508v16.381l-1.966-0.508V290.391z"/>
			<path fill="#FFFFFF" d="M176.884,303.926c0,4.129-2.831,5.511-5.501,5.116c-2.99-0.441-5.296-2.997-5.296-6.526
				c0-3.738,2.42-5.572,5.479-5.121C174.738,297.863,176.884,300.512,176.884,303.926z M168.118,302.746
				c0,2.445,1.393,4.497,3.356,4.787c1.917,0.283,3.355-1.327,3.355-3.842c0-1.893-0.936-4.43-3.31-4.78
				S168.118,300.623,168.118,302.746z"/>
			<path fill="#FFFFFF" d="M187.417,309.622c-0.53,0.256-1.706,0.578-3.205,0.519c-3.366-0.133-5.557-2.504-5.557-5.919
				c0-3.438,2.352-5.836,5.995-5.691c1.199,0.048,2.26,0.39,2.813,0.688l-0.461,1.551c-0.484-0.297-1.245-0.58-2.352-0.624
				c-2.559-0.102-3.942,1.735-3.942,4.065c0,2.584,1.66,4.242,3.874,4.33c1.152,0.045,1.914-0.225,2.49-0.455L187.417,309.622z"/>
			<path fill="#FFFFFF" d="M191.817,303.841l0.046-0.002c0.277-0.406,0.668-0.911,0.991-1.319l3.272-4.02l2.442-0.125l-4.309,4.811
				l4.908,6.325l-2.465,0.126l-3.848-5.156l-1.037,1.206v4.199l-2.004,0.103v-16.381l2.004-0.103V303.841z"/>
			<path fill="#FFFFFF" d="M210.703,307.479v-3.576l-6.486,1.441v-2.284l5.541-10.368l4.189-0.93v8.789l1.757-0.39v2.63
				l-1.757,0.391v3.576L210.703,307.479z M210.703,301.271v-3.322c0-0.899,0.045-1.832,0.112-2.816l-0.09,0.021
				c-0.473,1.073-0.856,2.036-1.352,3.092l-1.959,3.712v0.046L210.703,301.271z"/>
			<path fill="#FFFFFF" d="M223.411,303.109l-0.189-1.045l-0.063,0.029c-0.672,1.205-1.723,2.166-2.941,2.719
				c-2.08,0.945-3.32-0.154-3.32-1.953c0-2.93,2.395-5.425,6.03-7.051v-0.162c0-0.6-0.294-1.32-1.87-0.605
				c-1.05,0.478-2.164,1.375-2.836,2.142l-0.588-1.993c0.714-0.764,2.122-1.956,3.992-2.805c3.425-1.555,4.518,0.164,4.518,2.818
				v3.922c0,1.084,0.042,2.104,0.147,2.678L223.411,303.109z M223.032,297.952c-1.681,0.739-2.983,1.77-2.983,3.13
				c0,0.9,0.546,1.091,1.26,0.767c0.799-0.362,1.45-1.235,1.66-2.046c0.042-0.203,0.063-0.42,0.063-0.628V297.952z"/>
		</g>
	</g>
	<g>
	</g>
	<g>
		<path fill="#009245" stroke="#009245" stroke-miterlimit="10" d="M142.5,232.5v28h0.106c0.469,8,20.408,17.043,44.954,17.043
			s44.485-9.043,44.955-17.043H232.5v-28H142.5z"/>
		<ellipse fill="#00FF00" stroke="#FFFFFF" stroke-miterlimit="10" cx="187.561" cy="231.773" rx="44.977" ry="17.383"/>
		<g>
			<path fill="none" d="M232.538,253.234c0,9.6-20.137,17.381-44.978,17.381c-24.84,0-44.977-7.781-44.977-17.381"/>
			<path fill="#FFFFFF" d="M147.146,253.846c0-1.43-0.041-2.605-0.082-3.688l1.619,0.839l0.082,1.958l0.041,0.021
				c0.738-0.979,1.906-1.181,3.525-0.342c2.397,1.243,4.201,4.461,4.201,7.853c0,4.014-2.172,4.873-4.508,3.662
				c-1.312-0.68-2.459-1.92-3.053-3.336l-0.041-0.021v6.068l-1.783-0.924V253.846z M148.929,257.746c0,0.3,0.041,0.598,0.082,0.873
				c0.328,1.577,1.414,3.109,2.705,3.777c1.906,0.988,3.012-0.191,3.012-2.752c0-2.238-1.045-4.695-2.951-5.683
				c-1.229-0.638-2.377-0.239-2.726,1.103c-0.062,0.222-0.123,0.49-0.123,0.767V257.746z"/>
			<path fill="#FFFFFF" d="M165.07,268.323l-0.156-1.447l-0.067-0.017c-0.604,0.723-1.766,1.211-3.309,0.818
				c-2.191-0.558-3.309-2.435-3.309-4.049c0-2.699,2.325-3.584,6.505-2.497V260.9c0-0.922-0.246-2.646-2.459-3.209
				c-1.006-0.256-2.057-0.201-2.817,0.113l-0.447-1.452c0.894-0.372,2.19-0.435,3.554-0.087c3.309,0.842,4.113,3.377,4.113,5.615
				v4.176c0,0.969,0.044,1.926,0.179,2.722L165.07,268.323z M164.78,262.551c-2.146-0.593-4.583-0.82-4.583,1.348
				c0,1.314,0.85,2.154,1.855,2.41c1.408,0.359,2.302-0.336,2.615-1.203c0.067-0.189,0.112-0.409,0.112-0.617V262.551z"/>
			<path fill="#FFFFFF" d="M169.932,261.568c0-1.314-0.023-2.449-0.091-3.496l1.759,0.25l0.068,2.201l0.092,0.014
				c0.502-1.429,1.713-2.202,3.061-2.01c0.229,0.031,0.389,0.078,0.571,0.15v1.914c-0.206-0.075-0.411-0.127-0.686-0.166
				c-1.416-0.202-2.421,0.739-2.695,2.223c-0.045,0.271-0.091,0.588-0.091,0.934v5.952l-1.987-0.282V261.568z"/>
			<path fill="#FFFFFF" d="M179.774,256.059c0.023,0.693-0.483,1.207-1.289,1.145c-0.713-0.057-1.219-0.65-1.219-1.342
				c0-0.716,0.529-1.229,1.266-1.17C179.291,254.752,179.774,255.344,179.774,256.059z M177.519,270.185v-11.167l2.025,0.16v11.167
				L177.519,270.185z"/>
			<path fill="#FFFFFF" d="M185.342,256.22v3.207l2.907,0.062v1.546l-2.907-0.062v6.021c0,1.385,0.392,2.178,1.522,2.201
				c0.531,0.012,0.923-0.05,1.177-0.113l0.092,1.523c-0.392,0.154-1.015,0.256-1.799,0.24c-0.946-0.021-1.708-0.337-2.192-0.9
				c-0.577-0.612-0.785-1.609-0.785-2.924v-6.091l-1.73-0.036v-1.547l1.73,0.037v-2.676L185.342,256.22z"/>
			<path fill="#FFFFFF" d="M191.475,259.424l2.442,6.452c0.253,0.724,0.53,1.583,0.714,2.241l0.046-0.002
				c0.207-0.682,0.438-1.549,0.714-2.373l2.212-6.684l2.143-0.129l-3.042,8.141c-1.452,3.917-2.442,5.938-3.825,7.219
				c-0.991,0.937-1.981,1.342-2.488,1.464l-0.507-1.677c0.507-0.191,1.175-0.555,1.774-1.098c0.553-0.472,1.244-1.297,1.705-2.363
				c0.092-0.213,0.161-0.379,0.161-0.494s-0.046-0.273-0.138-0.521l-4.124-10.045L191.475,259.424z"/>
			<path fill="#FFFFFF" d="M205.975,269.288c0.045-0.749,0.09-2.121,0.09-3.39v-13.013l3.41-0.825v6.437l0.045-0.011
				c0.65-1.127,1.794-2.027,3.319-2.396c2.625-0.635,4.554,1.135,4.531,4.602c0,4.061-2.512,6.699-5.024,7.308
				c-1.279,0.31-2.512,0.124-3.297-1.024l-0.045,0.012l-0.135,1.602L205.975,269.288z M209.475,263.642
				c0,0.231,0.022,0.433,0.067,0.606c0.225,0.893,1.01,1.417,1.997,1.178c1.458-0.354,2.355-1.724,2.355-3.754
				c0-1.754-0.763-2.953-2.355-2.567c-0.919,0.223-1.772,1.145-1.997,2.214c-0.044,0.219-0.067,0.432-0.067,0.662V263.642z"/>
			<path fill="#FFFFFF" d="M219.63,262.295c0.551,0.033,1.815-0.035,3.081-0.703c1.612-0.852,2.428-2.158,2.428-3.289
				c0-1.477-1.306-1.456-2.673-0.734l-1.265,0.668v-2.516l1.204-0.635c1.041-0.572,2.367-1.711,2.367-2.98
				c0-0.899-0.653-1.224-1.958-0.534c-1.082,0.571-2.224,1.704-2.774,2.364l-0.633-2.203c0.796-0.997,2.387-2.391,4.101-3.296
				c2.836-1.497,4.407-0.644,4.407,1.411c0,1.592-0.795,3.258-2.428,4.766v0.045c1.591-0.517,2.876,0.166,2.876,2.127
				c0,2.653-2.061,5.68-5.427,7.457c-1.713,0.904-3.162,1.162-3.937,1.018L219.63,262.295z"/>
		</g>
	</g>
	<g>
		<path fill="#327DD8" stroke="#327DD8" stroke-miterlimit="10" d="M142.5,192.5v28h0.106c0.469,8,20.408,17.043,44.954,17.043
			s44.485-9.043,44.955-17.043H232.5v-28H142.5z"/>
		<ellipse fill="#4DC3F8" stroke="#FFFFFF" stroke-miterlimit="10" cx="187.561" cy="192.441" rx="44.977" ry="17.381"/>
		<g>
			<path fill="none" d="M232.538,213.9c0,9.6-20.137,17.383-44.978,17.383c-24.84,0-44.977-7.783-44.977-17.383"/>
			<path fill="#FFFFFF" d="M148.576,222.988c0.042-0.742,0.083-1.854,0.083-2.846v-13.496l1.824,0.84v7.014l0.042,0.02
				c0.65-0.947,1.824-1.213,3.459-0.46c2.516,1.159,4.298,4.287,4.277,7.669c0,3.991-2.285,4.922-4.55,3.879
				c-1.467-0.676-2.642-1.84-3.396-3.664l-0.063-0.029l-0.084,1.808L148.576,222.988z M150.483,219.391
				c0,0.254,0.042,0.527,0.084,0.777c0.356,1.571,1.425,3.033,2.767,3.65c1.929,0.889,3.082-0.31,3.082-2.871
				c0-2.237-1.048-4.635-3.019-5.543c-1.258-0.58-2.432-0.175-2.809,1.197c-0.042,0.211-0.105,0.459-0.105,0.782V219.391z"/>
			<path fill="#FFFFFF" d="M160.826,211.507l1.96,0.529v16.38l-1.96-0.528V211.507z"/>
			<path fill="#FFFFFF" d="M176.078,225.188c0,4.129-2.827,5.486-5.494,5.068c-2.986-0.468-5.289-3.043-5.289-6.573
				c0-3.737,2.417-5.551,5.471-5.072C173.936,219.107,176.078,221.772,176.078,225.188z M167.324,223.932
				c0,2.445,1.391,4.509,3.351,4.816c1.915,0.299,3.351-1.299,3.351-3.813c0-1.893-0.935-4.438-3.305-4.81
				C168.35,219.754,167.324,221.809,167.324,223.932z"/>
			<path fill="#FFFFFF" d="M186.624,230.949c-0.53,0.253-1.706,0.567-3.205,0.498c-3.366-0.156-5.557-2.541-5.557-5.956
				c0-3.438,2.352-5.82,5.995-5.651c1.199,0.055,2.26,0.404,2.813,0.707l-0.461,1.547c-0.484-0.299-1.245-0.588-2.352-0.639
				c-2.559-0.119-3.942,1.709-3.942,4.039c0,2.584,1.66,4.252,3.874,4.355c1.152,0.053,1.914-0.211,2.49-0.438L186.624,230.949z"/>
			<path fill="#FFFFFF" d="M191.008,225.199l0.046-0.002c0.277-0.404,0.669-0.906,0.992-1.313l3.274-3.998l2.444-0.108l-4.312,4.782
				l4.911,6.357l-2.467,0.109l-3.85-5.182l-1.038,1.199v4.199l-2.006,0.089v-16.38l2.006-0.09V225.199z"/>
			<path fill="#FFFFFF" d="M203.863,230.274v-2.122l1.896-2.156c3.205-3.611,4.762-5.625,4.807-7.389
				c0-1.223-0.722-2.038-2.415-1.679c-1.264,0.269-2.37,1.149-3.137,1.911l-0.97-2.309c1.106-1.088,2.821-2.145,4.807-2.566
				c3.317-0.703,5.145,0.893,5.145,3.615c0,2.514-1.783,4.9-3.904,7.288l-1.354,1.441v0.046l5.529-1.174v2.884L203.863,230.274z"/>
			<path fill="#FFFFFF" d="M216.75,227.467c0.042-0.758,0.084-2.138,0.084-3.406v-13.013l3.194-1.45v6.438l0.042-0.02
				c0.609-1.245,1.681-2.354,3.109-3.003c2.458-1.116,4.266,0.302,4.245,3.772c0,4.061-2.354,7.158-4.707,8.227
				c-1.198,0.544-2.354,0.584-3.089-0.42l-0.042,0.019l-0.126,1.626L216.75,227.467z M220.028,221.18c0,0.23,0.021,0.43,0.063,0.595
				c0.21,0.851,0.945,1.231,1.87,0.813c1.366-0.62,2.206-2.155,2.206-4.186c0-1.753-0.714-2.813-2.206-2.136
				c-0.862,0.391-1.66,1.469-1.87,2.578c-0.042,0.228-0.063,0.444-0.063,0.676V221.18z"/>
		</g>
	</g>
	<g>
		<path fill="#327DD8" stroke="#327DD8" stroke-miterlimit="10" d="M142.5,153.5v28h0.106c0.469,8,20.408,17.043,44.954,17.043
			s44.485-9.043,44.955-17.043H232.5v-28H142.5z"/>
		<ellipse fill="#4DC3F8" stroke="#FFFFFF" stroke-miterlimit="10" cx="187.561" cy="153.107" rx="44.977" ry="17.382"/>
		<g>
			<path fill="none" d="M232.538,174.567c0,9.6-20.137,17.382-44.978,17.382c-24.84,0-44.977-7.782-44.977-17.382"/>
			<path fill="#FFFFFF" d="M148.576,183.654c0.042-0.742,0.083-1.853,0.083-2.845v-13.497l1.824,0.84v7.014l0.042,0.02
				c0.65-0.946,1.824-1.213,3.459-0.459c2.516,1.159,4.298,4.287,4.277,7.669c0,3.991-2.285,4.922-4.55,3.879
				c-1.467-0.676-2.642-1.84-3.396-3.664l-0.063-0.029l-0.084,1.807L148.576,183.654z M150.483,180.058
				c0,0.253,0.042,0.527,0.084,0.777c0.356,1.571,1.425,3.033,2.767,3.651c1.929,0.889,3.082-0.31,3.082-2.871
				c0-2.238-1.048-4.636-3.019-5.544c-1.258-0.58-2.432-0.174-2.809,1.198c-0.042,0.211-0.105,0.459-0.105,0.782V180.058z"/>
			<path fill="#FFFFFF" d="M160.826,172.173l1.96,0.529v16.38l-1.96-0.529V172.173z"/>
			<path fill="#FFFFFF" d="M176.078,185.854c0,4.13-2.827,5.486-5.494,5.069c-2.986-0.468-5.289-3.043-5.289-6.573
				c0-3.737,2.417-5.551,5.471-5.072C173.936,179.773,176.078,182.439,176.078,185.854z M167.324,184.598
				c0,2.446,1.391,4.509,3.351,4.816c1.915,0.3,3.351-1.298,3.351-3.813c0-1.892-0.935-4.438-3.305-4.809
				C168.35,180.421,167.324,182.475,167.324,184.598z"/>
			<path fill="#FFFFFF" d="M186.624,191.616c-0.53,0.253-1.706,0.567-3.205,0.497c-3.366-0.156-5.557-2.541-5.557-5.956
				c0-3.438,2.352-5.82,5.995-5.652c1.199,0.056,2.26,0.405,2.813,0.707l-0.461,1.548c-0.484-0.299-1.245-0.588-2.352-0.64
				c-2.559-0.119-3.942,1.709-3.942,4.04c0,2.584,1.66,4.252,3.874,4.355c1.152,0.054,1.914-0.211,2.49-0.438L186.624,191.616z"/>
			<path fill="#FFFFFF" d="M191.008,185.866l0.046-0.002c0.277-0.404,0.669-0.906,0.992-1.313l3.274-3.999l2.444-0.108l-4.312,4.782
				l4.911,6.357l-2.467,0.109l-3.85-5.181l-1.038,1.2v4.198l-2.006,0.09v-16.381l2.006-0.089V185.866z"/>
			<path fill="#FFFFFF" d="M208.241,178.13l-0.045,0.009l-2.798,1.956l-0.564-2.511l3.881-2.669l2.844-0.604v14.997l-3.317,0.704
				V178.13z"/>
			<path fill="#FFFFFF" d="M216.75,188.133c0.042-0.757,0.084-2.138,0.084-3.407v-13.012l3.194-1.45v6.437l0.042-0.019
				c0.609-1.246,1.681-2.355,3.109-3.003c2.458-1.116,4.266,0.302,4.245,3.772c0,4.061-2.354,7.159-4.707,8.227
				c-1.198,0.543-2.354,0.583-3.089-0.421l-0.042,0.019l-0.126,1.626L216.75,188.133z M220.028,181.847
				c0,0.23,0.021,0.429,0.063,0.594c0.21,0.851,0.945,1.232,1.87,0.813c1.366-0.62,2.206-2.155,2.206-4.186
				c0-1.753-0.714-2.813-2.206-2.136c-0.862,0.391-1.66,1.469-1.87,2.579c-0.042,0.227-0.063,0.444-0.063,0.675V181.847z"/>
		</g>
	</g>
</g>
<g>
	<path fill="#999999" stroke="#999999" stroke-miterlimit="10" d="M261.5,153.5v173l0,0c0.521,9,23.033,18.938,50.308,18.938
		c27.273,0,49.171-9.938,49.692-18.938l0,0v-173H261.5z"/>
	<ellipse fill="#E6E6E6" stroke="#FFFFFF" stroke-miterlimit="10" cx="311.809" cy="153.038" rx="49.975" ry="19.313"/>
	<g>
		<path fill="none" d="M361.783,318.883c0,10.666-22.375,19.313-49.977,19.313c-27.6,0-49.973-8.646-49.973-19.313"/>
		<path fill="#FFFFFF" d="M295.315,324.404v10.533c0,0.773,0.018,1.659,0.071,2.262l-1.402-0.239l-0.07-1.524l-0.036-0.006
			c-0.479,0.891-1.526,1.449-2.929,1.209c-2.076-0.355-3.673-2.411-3.673-5.058c-0.018-2.901,1.757-4.381,3.851-4.022
			c1.313,0.225,2.201,1.006,2.592,1.775l0.035,0.006v-5.203L295.315,324.404z M293.754,331.753c0-0.198-0.018-0.472-0.071-0.679
			c-0.23-1.047-1.083-2.021-2.253-2.222c-1.615-0.276-2.574,1-2.574,2.927c0,1.764,0.852,3.369,2.538,3.657
			c1.047,0.179,2.005-0.359,2.289-1.499c0.054-0.207,0.071-0.42,0.071-0.672V331.753z"/>
		<path fill="#FFFFFF" d="M297.922,331.455c0-1.026-0.018-1.91-0.072-2.727l1.379,0.135l0.055,1.715l0.071,0.008
			c0.394-1.133,1.344-1.778,2.4-1.676c0.179,0.018,0.305,0.048,0.448,0.098v1.494c-0.162-0.051-0.322-0.085-0.537-0.105
			c-1.111-0.108-1.899,0.662-2.114,1.829c-0.036,0.212-0.071,0.461-0.071,0.731v4.645l-1.559-0.15V331.455z"/>
		<path fill="#FFFFFF" d="M305.634,326.889c0.019,0.541-0.378,0.951-1.007,0.917c-0.557-0.03-0.953-0.484-0.953-1.024
			c0-0.559,0.414-0.968,0.989-0.936C305.256,325.878,305.634,326.331,305.634,326.889z M303.872,337.955v-8.715l1.582,0.088v8.715
			L303.872,337.955z"/>
		<path fill="#FFFFFF" d="M308.679,329.463l1.71,4.908c0.289,0.793,0.522,1.516,0.703,2.236h0.053
			c0.199-0.719,0.451-1.438,0.738-2.229l1.693-4.887l1.656,0.01l-3.421,8.693l-1.513-0.008l-3.313-8.734L308.679,329.463z"/>
		<path fill="#FFFFFF" d="M317.418,334.027c0.036,2.141,1.4,2.939,2.981,2.843c1.132-0.069,1.813-0.31,2.407-0.597l0.269,1.117
			c-0.557,0.286-1.509,0.633-2.892,0.717c-2.676,0.164-4.273-1.503-4.273-4.131c0-2.629,1.544-4.795,4.076-4.949
			c2.838-0.174,3.592,2.283,3.592,3.885c0,0.324-0.035,0.579-0.054,0.742L317.418,334.027z M322.052,332.609
			c0.019-1.009-0.413-2.549-2.19-2.44c-1.6,0.099-2.299,1.617-2.426,2.724L322.052,332.609z"/>
		<path fill="#FFFFFF" d="M329.205,335.231c0.442,0.21,1.471,0.479,2.553,0.288c2.004-0.354,2.624-1.76,2.606-2.729
			c-0.019-1.636-1.472-2.082-2.979-1.815l-0.868,0.153v-1.188l0.868-0.153c1.135-0.2,2.571-1.048,2.571-2.434
			c0-0.938-0.585-1.662-2.021-1.408c-0.922,0.162-1.809,0.732-2.306,1.181l-0.407-1.081c0.603-0.557,1.772-1.213,3.014-1.432
			c2.27-0.4,3.298,0.787,3.298,2.209c0,1.207-0.709,2.357-2.128,3.131v0.035c1.419,0.038,2.571,0.915,2.571,2.554
			c0,1.872-1.437,3.765-4.202,4.253c-1.295,0.229-2.43,0.014-2.996-0.264L329.205,335.231z"/>
	</g>
	<g>
		<path fill="#327DD8" stroke="#327DD8" stroke-miterlimit="10" d="M266.5,271.5v28h0.105c0.469,8,20.408,17.043,44.955,17.043
			c24.546,0,44.484-9.043,44.954-17.043H356.5v-28H266.5z"/>
		<ellipse fill="#4DC3F8" stroke="#FFFFFF" stroke-miterlimit="10" cx="311.561" cy="271.107" rx="44.977" ry="17.382"/>
		<g>
			<path fill="none" d="M356.538,292.567c0,9.6-20.138,17.382-44.978,17.382s-44.977-7.782-44.977-17.382"/>
			<path fill="#FFFFFF" d="M272.576,301.654c0.041-0.742,0.083-1.854,0.083-2.846v-13.496l1.824,0.84v7.014l0.042,0.02
				c0.65-0.946,1.824-1.213,3.459-0.459c2.516,1.158,4.299,4.287,4.277,7.668c0,3.992-2.285,4.923-4.55,3.88
				c-1.468-0.677-2.642-1.84-3.396-3.664l-0.063-0.029l-0.084,1.808L272.576,301.654z M274.483,298.058
				c0,0.253,0.042,0.526,0.084,0.776c0.356,1.572,1.425,3.033,2.767,3.651c1.93,0.889,3.082-0.31,3.082-2.871
				c0-2.237-1.048-4.636-3.019-5.544c-1.258-0.58-2.432-0.174-2.81,1.197c-0.041,0.212-0.104,0.459-0.104,0.783V298.058z"/>
			<path fill="#FFFFFF" d="M284.826,290.174l1.961,0.529v16.38l-1.961-0.528V290.174z"/>
			<path fill="#FFFFFF" d="M300.078,303.854c0,4.13-2.826,5.486-5.494,5.068c-2.986-0.467-5.289-3.043-5.289-6.572
				c0-3.738,2.417-5.551,5.472-5.072C297.936,297.773,300.078,300.439,300.078,303.854z M291.324,302.598
				c0,2.445,1.391,4.51,3.352,4.816c1.914,0.3,3.351-1.298,3.351-3.813c0-1.893-0.935-4.438-3.306-4.809
				C292.35,298.421,291.324,300.475,291.324,302.598z"/>
			<path fill="#FFFFFF" d="M310.623,309.616c-0.529,0.253-1.705,0.567-3.204,0.497c-3.366-0.156-5.557-2.541-5.557-5.955
				c0-3.438,2.353-5.82,5.995-5.652c1.199,0.056,2.26,0.404,2.813,0.707l-0.461,1.548c-0.484-0.3-1.245-0.589-2.352-0.64
				c-2.56-0.119-3.943,1.709-3.943,4.039c0,2.584,1.66,4.253,3.874,4.355c1.152,0.054,1.913-0.211,2.489-0.438L310.623,309.616z"/>
			<path fill="#FFFFFF" d="M315.008,303.866l0.047-0.003c0.276-0.404,0.668-0.906,0.991-1.313l3.274-3.998l2.443-0.107l-4.312,4.781
				l4.911,6.357l-2.467,0.109l-3.851-5.182l-1.038,1.2v4.198l-2.006,0.09v-16.381l2.006-0.089V303.866z"/>
			<path fill="#FFFFFF" d="M333.934,307.652v-3.576l-6.5,1.38v-2.284l5.553-10.314l4.197-0.892v8.79l1.76-0.373v2.629l-1.76,0.375
				v3.575L333.934,307.652z M333.934,301.445v-3.322c0-0.899,0.045-1.832,0.113-2.814l-0.091,0.019
				c-0.474,1.069-0.857,2.028-1.354,3.079l-1.963,3.693v0.046L333.934,301.445z"/>
			<path fill="#FFFFFF" d="M340.75,306.133c0.043-0.757,0.084-2.137,0.084-3.406v-13.012l3.194-1.45v6.437l0.042-0.019
				c0.609-1.245,1.681-2.354,3.109-3.003c2.459-1.116,4.266,0.302,4.244,3.771c0,4.061-2.354,7.159-4.706,8.228
				c-1.198,0.544-2.354,0.583-3.089-0.421l-0.042,0.02l-0.126,1.625L340.75,306.133z M344.028,299.847
				c0,0.23,0.021,0.429,0.063,0.595c0.209,0.85,0.945,1.231,1.869,0.813c1.366-0.621,2.207-2.156,2.207-4.186
				c0-1.754-0.715-2.813-2.207-2.137c-0.861,0.391-1.66,1.469-1.869,2.579c-0.043,0.228-0.063,0.444-0.063,0.675V299.847z"/>
		</g>
	</g>
	<g>
	</g>
	<g>
		<path fill="#327DD8" stroke="#327DD8" stroke-miterlimit="10" d="M266.5,232.5v28h0.105c0.469,8,20.408,17.043,44.955,17.043
			c24.546,0,44.484-9.043,44.954-17.043H356.5v-28H266.5z"/>
		<ellipse fill="#4DC3F8" stroke="#FFFFFF" stroke-miterlimit="10" cx="311.561" cy="231.773" rx="44.977" ry="17.383"/>
		<g>
			<path fill="none" d="M356.538,253.234c0,9.6-20.138,17.381-44.978,17.381s-44.977-7.781-44.977-17.381"/>
			<path fill="#FFFFFF" d="M272.576,262.32c0.041-0.742,0.083-1.853,0.083-2.845v-13.497l1.824,0.84v7.014l0.042,0.02
				c0.65-0.945,1.824-1.213,3.459-0.459c2.516,1.158,4.299,4.287,4.277,7.669c0,3.991-2.285,4.923-4.55,3.88
				c-1.468-0.677-2.642-1.84-3.396-3.664l-0.063-0.029l-0.084,1.807L272.576,262.32z M274.483,258.725
				c0,0.253,0.042,0.526,0.084,0.776c0.356,1.571,1.425,3.032,2.767,3.651c1.93,0.889,3.082-0.311,3.082-2.871
				c0-2.238-1.048-4.637-3.019-5.545c-1.258-0.579-2.432-0.174-2.81,1.198c-0.041,0.212-0.104,0.459-0.104,0.782V258.725z"/>
			<path fill="#FFFFFF" d="M284.826,250.84l1.961,0.529v16.381l-1.961-0.529V250.84z"/>
			<path fill="#FFFFFF" d="M300.078,264.52c0,4.131-2.826,5.487-5.494,5.069c-2.986-0.468-5.289-3.043-5.289-6.573
				c0-3.737,2.417-5.551,5.472-5.072C297.936,258.439,300.078,261.105,300.078,264.52z M291.324,263.264
				c0,2.446,1.391,4.51,3.352,4.816c1.914,0.301,3.351-1.297,3.351-3.813c0-1.892-0.935-4.438-3.306-4.809
				S291.324,261.142,291.324,263.264z"/>
			<path fill="#FFFFFF" d="M310.623,270.283c-0.529,0.252-1.705,0.566-3.204,0.497c-3.366-0.156-5.557-2.542-5.557-5.956
				c0-3.438,2.353-5.82,5.995-5.652c1.199,0.057,2.26,0.405,2.813,0.707l-0.461,1.549c-0.484-0.3-1.245-0.589-2.352-0.641
				c-2.56-0.118-3.943,1.709-3.943,4.04c0,2.584,1.66,4.253,3.874,4.354c1.152,0.055,1.913-0.211,2.489-0.438L310.623,270.283z"/>
			<path fill="#FFFFFF" d="M315.008,264.533l0.047-0.003c0.276-0.404,0.668-0.906,0.991-1.313l3.274-3.999l2.443-0.107l-4.312,4.782
				l4.911,6.357l-2.467,0.109l-3.851-5.182l-1.038,1.2v4.198l-2.006,0.089v-16.381l2.006-0.088V264.533z"/>
			<path fill="#FFFFFF" d="M328.473,266.041c0.609,0.193,2.008,0.496,3.407,0.199c1.782-0.379,2.686-1.447,2.686-2.578
				c0-1.477-1.444-1.839-2.956-1.518l-1.399,0.297v-2.515l1.331-0.282c1.151-0.268,2.618-1.018,2.618-2.287
				c0-0.899-0.722-1.415-2.167-1.108c-1.195,0.254-2.459,1.053-3.068,1.552l-0.699-2.39c0.879-0.764,2.64-1.69,4.535-2.094
				c3.137-0.666,4.875,0.649,4.875,2.702c0,1.593-0.881,3.025-2.686,4.055v0.046c1.76-0.051,3.182,1.009,3.182,2.97
				c0,2.653-2.279,5.075-6.002,5.865c-1.896,0.402-3.498,0.236-4.356-0.137L328.473,266.041z"/>
			<path fill="#FFFFFF" d="M340.75,266.8c0.043-0.757,0.084-2.138,0.084-3.407v-13.012l3.194-1.449v6.437l0.042-0.019
				c0.609-1.246,1.681-2.355,3.109-3.004c2.459-1.115,4.266,0.303,4.244,3.772c0,4.061-2.354,7.159-4.706,8.228
				c-1.198,0.543-2.354,0.583-3.089-0.422l-0.042,0.02l-0.126,1.626L340.75,266.8z M344.028,260.514c0,0.23,0.021,0.428,0.063,0.594
				c0.209,0.851,0.945,1.232,1.869,0.813c1.366-0.62,2.207-2.155,2.207-4.186c0-1.754-0.715-2.813-2.207-2.137
				c-0.861,0.392-1.66,1.469-1.869,2.58c-0.043,0.227-0.063,0.443-0.063,0.674V260.514z"/>
		</g>
	</g>
	<g>
		<path fill="#009245" stroke="#009245" stroke-miterlimit="10" d="M266.5,192.5v28h0.105c0.469,8,20.408,17.043,44.955,17.043
			c24.546,0,44.484-9.043,44.954-17.043H356.5v-28H266.5z"/>
		<ellipse fill="#00FF00" stroke="#FFFFFF" stroke-miterlimit="10" cx="311.561" cy="192.441" rx="44.977" ry="17.381"/>
		<g>
			<path fill="none" d="M356.538,213.9c0,9.6-20.138,17.383-44.978,17.383s-44.977-7.783-44.977-17.383"/>
			<path fill="#FFFFFF" d="M271.146,214.513c0-1.431-0.041-2.604-0.082-3.688l1.619,0.839l0.082,1.957l0.041,0.021
				c0.737-0.979,1.905-1.182,3.524-0.342c2.397,1.242,4.2,4.461,4.2,7.853c0,4.015-2.172,4.872-4.508,3.662
				c-1.312-0.68-2.459-1.921-3.053-3.336l-0.041-0.021v6.066l-1.783-0.924V214.513z M272.93,218.413c0,0.3,0.041,0.599,0.082,0.873
				c0.327,1.577,1.414,3.108,2.705,3.778c1.905,0.987,3.012-0.192,3.012-2.754c0-2.237-1.045-4.693-2.951-5.682
				c-1.229-0.637-2.377-0.24-2.725,1.102c-0.063,0.223-0.123,0.49-0.123,0.768V218.413z"/>
			<path fill="#FFFFFF" d="M289.07,228.99l-0.156-1.447l-0.066-0.018c-0.604,0.724-1.767,1.212-3.309,0.819
				c-2.191-0.558-3.309-2.435-3.309-4.05c0-2.699,2.324-3.584,6.505-2.496v-0.23c0-0.924-0.246-2.646-2.459-3.211
				c-1.006-0.256-2.057-0.2-2.817,0.114l-0.446-1.452c0.894-0.372,2.19-0.434,3.554-0.087c3.309,0.843,4.113,3.378,4.113,5.615
				v4.176c0,0.97,0.045,1.927,0.18,2.722L289.07,228.99z M288.779,223.217c-2.146-0.592-4.582-0.82-4.582,1.349
				c0,1.315,0.85,2.154,1.855,2.411c1.408,0.357,2.303-0.338,2.615-1.203c0.067-0.191,0.111-0.41,0.111-0.617V223.217z"/>
			<path fill="#FFFFFF" d="M293.932,222.236c0-1.316-0.023-2.449-0.092-3.498l1.76,0.251l0.068,2.202l0.092,0.012
				c0.502-1.428,1.713-2.201,3.061-2.01c0.229,0.033,0.389,0.078,0.57,0.15v1.916c-0.205-0.076-0.41-0.129-0.686-0.168
				c-1.416-0.201-2.42,0.74-2.695,2.225c-0.045,0.27-0.091,0.586-0.091,0.932v5.953l-1.987-0.283V222.236z"/>
			<path fill="#FFFFFF" d="M303.773,216.726c0.023,0.694-0.482,1.208-1.288,1.144c-0.714-0.056-1.22-0.649-1.22-1.342
				c0-0.715,0.529-1.227,1.266-1.169C303.291,215.418,303.773,216.01,303.773,216.726z M301.52,230.852v-11.166l2.024,0.16v11.166
				L301.52,230.852z"/>
			<path fill="#FFFFFF" d="M309.342,216.887v3.207l2.907,0.062v1.546l-2.907-0.062v6.021c0,1.384,0.393,2.177,1.523,2.2
				c0.53,0.012,0.922-0.049,1.176-0.113l0.093,1.525c-0.392,0.152-1.015,0.256-1.8,0.238c-0.945-0.02-1.707-0.336-2.191-0.9
				c-0.576-0.611-0.785-1.607-0.785-2.923v-6.091l-1.73-0.037v-1.545l1.73,0.036v-2.677L309.342,216.887z"/>
			<path fill="#FFFFFF" d="M315.475,220.09l2.443,6.453c0.253,0.723,0.529,1.584,0.713,2.242l0.047-0.004
				c0.207-0.682,0.438-1.549,0.715-2.372l2.211-6.685l2.143-0.127l-3.041,8.141c-1.451,3.916-2.442,5.936-3.824,7.219
				c-0.991,0.936-1.982,1.34-2.488,1.463l-0.508-1.678c0.508-0.191,1.176-0.554,1.774-1.098c0.554-0.471,1.244-1.297,1.705-2.361
				c0.093-0.214,0.161-0.379,0.161-0.494c0-0.116-0.046-0.275-0.139-0.523l-4.123-10.043L315.475,220.09z"/>
			<path fill="#FFFFFF" d="M329.975,229.955c0.045-0.749,0.09-2.121,0.09-3.391v-13.012l3.41-0.826v6.438l0.045-0.012
				c0.65-1.126,1.795-2.025,3.319-2.395c2.624-0.637,4.554,1.135,4.531,4.601c0,4.061-2.513,6.699-5.024,7.308
				c-1.279,0.31-2.512,0.124-3.297-1.023l-0.045,0.01l-0.135,1.602L329.975,229.955z M333.475,224.309
				c0,0.23,0.022,0.434,0.066,0.607c0.225,0.891,1.01,1.416,1.997,1.178c1.458-0.354,2.354-1.725,2.354-3.755
				c0-1.753-0.762-2.953-2.354-2.567c-0.919,0.223-1.772,1.145-1.997,2.214c-0.044,0.218-0.066,0.432-0.066,0.662V224.309z"/>
			<path fill="#FFFFFF" d="M343.079,226.691v-2.123l1.714-2.658c2.896-4.459,4.305-6.887,4.346-8.662
				c0-1.223-0.653-1.848-2.184-1.039c-1.143,0.604-2.143,1.777-2.836,2.743l-0.877-2.052c1-1.381,2.551-2.893,4.346-3.84
				c2.998-1.584,4.651-0.473,4.651,2.25c0,2.515-1.612,5.373-3.53,8.324l-1.223,1.799v0.047l4.998-2.64v2.884L343.079,226.691z"/>
		</g>
	</g>
	<g>
		<path fill="#327DD8" stroke="#327DD8" stroke-miterlimit="10" d="M266.5,153.5v28h0.105c0.469,8,20.408,17.043,44.955,17.043
			c24.546,0,44.484-9.043,44.954-17.043H356.5v-28H266.5z"/>
		<ellipse fill="#4DC3F8" stroke="#FFFFFF" stroke-miterlimit="10" cx="311.561" cy="153.107" rx="44.977" ry="17.382"/>
		<g>
			<path fill="none" d="M356.538,174.567c0,9.6-20.138,17.382-44.978,17.382s-44.977-7.782-44.977-17.382"/>
			<path fill="#FFFFFF" d="M274.041,184.501c0.043-0.744,0.086-1.856,0.086-2.849v-13.497l1.854,0.77v7.014l0.043,0.018
				c0.661-0.972,1.854-1.284,3.518-0.593c2.558,1.062,4.369,4.122,4.348,7.504c0,3.992-2.322,5.011-4.625,4.055
				c-1.492-0.62-2.686-1.738-3.453-3.533l-0.064-0.026l-0.085,1.81L274.041,184.501z M275.98,180.831
				c0,0.253,0.043,0.525,0.086,0.773c0.362,1.558,1.449,2.978,2.813,3.544c1.962,0.814,3.134-0.429,3.134-2.99
				c0-2.238-1.066-4.595-3.07-5.427c-1.278-0.531-2.473-0.081-2.855,1.306c-0.043,0.213-0.107,0.463-0.107,0.787V180.831z"/>
			<path fill="#FFFFFF" d="M286.482,172.624l1.973,0.483v16.38l-1.973-0.483V172.624z"/>
			<path fill="#FFFFFF" d="M301.793,186.004c0,4.13-2.834,5.538-5.508,5.167c-2.994-0.413-5.303-2.947-5.303-6.477
				c0-3.737,2.422-5.594,5.485-5.171C299.645,179.963,301.793,182.59,301.793,186.004z M293.016,184.907
				c0,2.446,1.395,4.484,3.361,4.756c1.92,0.265,3.359-1.358,3.359-3.873c0-1.892-0.938-4.421-3.314-4.75
				S293.016,182.784,293.016,184.907z"/>
			<path fill="#FFFFFF" d="M312.304,191.616c-0.53,0.261-1.706,0.592-3.204,0.544c-3.367-0.106-5.557-2.46-5.557-5.875
				c0-3.438,2.352-5.855,5.994-5.739c1.199,0.038,2.26,0.372,2.813,0.666l-0.461,1.554c-0.484-0.292-1.244-0.57-2.352-0.605
				c-2.559-0.082-3.942,1.767-3.942,4.097c0,2.584,1.66,4.229,3.874,4.299c1.152,0.036,1.913-0.239,2.489-0.475L312.304,191.616z"/>
			<path fill="#FFFFFF" d="M316.695,185.806l0.046-0.003c0.276-0.409,0.669-0.916,0.991-1.327l3.271-4.046l2.442-0.144l-4.309,4.845
				l4.907,6.286l-2.465,0.146l-3.848-5.126l-1.037,1.215v4.198l-2.004,0.119v-16.381l2.004-0.118V185.806z"/>
			<path fill="#FFFFFF" d="M333.891,177.78l-0.045,0.01l-2.785,2.014l-0.561-2.499l3.863-2.751l2.83-0.664v14.997l-3.303,0.774
				V177.78z"/>
			<path fill="#FFFFFF" d="M350.09,183.617c-0.567,0.534-1.639,1.251-2.857,1.804c-3.32,1.507-5.442,0.255-5.442-3.298
				c0-3.299,2.06-6.933,5.884-8.668c0.84-0.382,1.764-0.64,2.437-0.668l-0.504,2.836c-0.378-0.013-0.946,0.083-1.786,0.464
				c-1.682,0.763-2.773,2.574-2.752,4.41c0,2.077,1.26,2.588,2.814,1.883c0.757-0.343,1.346-0.749,1.828-1.176L350.09,183.617z"/>
		</g>
	</g>
</g>
<g>
	<path fill="#999999" stroke="#999999" stroke-miterlimit="10" d="M386.5,153.5v173l0,0c0.521,9,23.033,18.938,50.308,18.938
		c27.273,0,49.171-9.938,49.692-18.938l0,0v-173H386.5z"/>
	<ellipse fill="#E6E6E6" stroke="#FFFFFF" stroke-miterlimit="10" cx="436.809" cy="153.038" rx="49.975" ry="19.313"/>
	<g>
		<path fill="none" d="M486.783,318.883c0,10.666-22.375,19.313-49.977,19.313c-27.6,0-49.973-8.646-49.973-19.313"/>
		<path fill="#FFFFFF" d="M420.315,324.404v10.533c0,0.773,0.018,1.659,0.071,2.262l-1.402-0.239l-0.07-1.524l-0.036-0.006
			c-0.479,0.891-1.526,1.449-2.929,1.209c-2.076-0.355-3.673-2.411-3.673-5.058c-0.018-2.901,1.757-4.381,3.851-4.022
			c1.313,0.225,2.201,1.006,2.592,1.775l0.035,0.006v-5.203L420.315,324.404z M418.754,331.753c0-0.198-0.018-0.472-0.071-0.679
			c-0.23-1.047-1.083-2.021-2.253-2.222c-1.615-0.276-2.574,1-2.574,2.927c0,1.764,0.852,3.369,2.538,3.657
			c1.047,0.179,2.005-0.359,2.289-1.499c0.054-0.207,0.071-0.42,0.071-0.672V331.753z"/>
		<path fill="#FFFFFF" d="M422.922,331.455c0-1.026-0.018-1.91-0.072-2.727l1.379,0.135l0.055,1.715l0.071,0.008
			c0.394-1.133,1.344-1.778,2.4-1.676c0.179,0.018,0.305,0.048,0.448,0.098v1.494c-0.162-0.051-0.322-0.085-0.537-0.105
			c-1.111-0.108-1.899,0.662-2.114,1.829c-0.036,0.212-0.071,0.461-0.071,0.731v4.645l-1.559-0.15V331.455z"/>
		<path fill="#FFFFFF" d="M430.634,326.889c0.019,0.541-0.378,0.951-1.007,0.917c-0.557-0.03-0.953-0.484-0.953-1.024
			c0-0.559,0.414-0.968,0.989-0.936C430.256,325.878,430.634,326.331,430.634,326.889z M428.872,337.955v-8.715l1.582,0.088v8.715
			L428.872,337.955z"/>
		<path fill="#FFFFFF" d="M433.679,329.463l1.71,4.908c0.289,0.793,0.522,1.516,0.703,2.236h0.053
			c0.199-0.719,0.451-1.438,0.738-2.229l1.693-4.887l1.656,0.01l-3.421,8.693l-1.513-0.008l-3.313-8.734L433.679,329.463z"/>
		<path fill="#FFFFFF" d="M442.418,334.027c0.036,2.141,1.4,2.939,2.981,2.843c1.132-0.069,1.813-0.31,2.407-0.597l0.269,1.117
			c-0.557,0.286-1.509,0.633-2.892,0.717c-2.676,0.164-4.273-1.503-4.273-4.131c0-2.629,1.544-4.795,4.076-4.949
			c2.838-0.174,3.592,2.283,3.592,3.885c0,0.324-0.035,0.579-0.054,0.742L442.418,334.027z M447.052,332.609
			c0.019-1.009-0.413-2.549-2.19-2.44c-1.6,0.099-2.299,1.617-2.426,2.724L447.052,332.609z"/>
		<path fill="#FFFFFF" d="M458.654,336.265v-3.187l-5.354,0.944v-1.044l5.141-8.38l1.686-0.297v7.274l1.613-0.285v1.242
			l-1.613,0.285v3.187L458.654,336.265z M458.654,331.836v-3.908c0-0.611,0.018-1.227,0.054-1.846l-0.054,0.01
			c-0.354,0.746-0.638,1.301-0.957,1.897l-2.818,4.477v0.036L458.654,331.836z"/>
	</g>
	<g>
		<path fill="#327DD8" stroke="#327DD8" stroke-miterlimit="10" d="M391.5,271.5v28h0.105c0.469,8,20.408,17.043,44.955,17.043
			c24.546,0,44.484-9.043,44.954-17.043H481.5v-28H391.5z"/>
		<ellipse fill="#4DC3F8" stroke="#FFFFFF" stroke-miterlimit="10" cx="436.561" cy="271.107" rx="44.977" ry="17.382"/>
		<g>
			<path fill="none" d="M481.538,292.567c0,9.6-20.138,17.382-44.978,17.382s-44.977-7.782-44.977-17.382"/>
			<path fill="#FFFFFF" d="M399.041,302.502c0.043-0.744,0.086-1.857,0.086-2.85v-13.496l1.854,0.77v7.014l0.043,0.018
				c0.661-0.971,1.854-1.283,3.518-0.593c2.558,1.062,4.369,4.122,4.348,7.504c0,3.991-2.322,5.011-4.625,4.056
				c-1.492-0.62-2.686-1.738-3.453-3.533l-0.064-0.027l-0.085,1.811L399.041,302.502z M400.98,298.831
				c0,0.253,0.043,0.524,0.086,0.773c0.362,1.558,1.449,2.978,2.813,3.544c1.962,0.814,3.134-0.429,3.134-2.99
				c0-2.237-1.066-4.595-3.07-5.427c-1.278-0.53-2.473-0.081-2.855,1.306c-0.043,0.213-0.107,0.463-0.107,0.787V298.831z"/>
			<path fill="#FFFFFF" d="M411.482,290.624l1.973,0.483v16.381l-1.973-0.484V290.624z"/>
			<path fill="#FFFFFF" d="M426.793,304.004c0,4.131-2.834,5.538-5.508,5.168c-2.994-0.413-5.303-2.947-5.303-6.477
				c0-3.738,2.422-5.595,5.485-5.172C424.645,297.963,426.793,300.59,426.793,304.004z M418.016,302.906
				c0,2.446,1.395,4.484,3.361,4.756c1.92,0.266,3.359-1.357,3.359-3.873c0-1.892-0.938-4.42-3.314-4.749
				S418.016,300.784,418.016,302.906z"/>
			<path fill="#FFFFFF" d="M437.304,309.616c-0.53,0.261-1.706,0.592-3.204,0.544c-3.367-0.106-5.557-2.46-5.557-5.875
				c0-3.438,2.352-5.854,5.994-5.738c1.199,0.038,2.26,0.371,2.813,0.666l-0.461,1.555c-0.484-0.293-1.244-0.57-2.352-0.605
				c-2.559-0.082-3.942,1.766-3.942,4.096c0,2.584,1.66,4.229,3.874,4.3c1.152,0.036,1.913-0.239,2.489-0.475L437.304,309.616z"/>
			<path fill="#FFFFFF" d="M441.695,303.806l0.046-0.003c0.276-0.408,0.669-0.916,0.991-1.327l3.271-4.046l2.442-0.145l-4.309,4.846
				l4.907,6.286l-2.465,0.146l-3.848-5.126l-1.037,1.215v4.198l-2.004,0.119v-16.381l2.004-0.118V303.806z"/>
			<path fill="#FFFFFF" d="M460.576,307.268v-3.576l-6.469,1.516v-2.283l5.525-10.432l4.178-0.979v8.79l1.752-0.41v2.63
				l-1.752,0.411v3.576L460.576,307.268z M460.576,301.061v-3.322c0-0.899,0.045-1.833,0.111-2.817l-0.09,0.021
				c-0.471,1.08-0.854,2.046-1.348,3.107l-1.953,3.734v0.047L460.576,301.061z"/>
			<path fill="#FFFFFF" d="M475.09,301.617c-0.567,0.534-1.639,1.252-2.857,1.805c-3.32,1.506-5.442,0.255-5.442-3.299
				c0-3.299,2.06-6.933,5.884-8.668c0.84-0.382,1.764-0.64,2.437-0.668l-0.504,2.836c-0.378-0.014-0.946,0.083-1.786,0.465
				c-1.682,0.763-2.773,2.574-2.752,4.41c0,2.076,1.26,2.588,2.814,1.883c0.757-0.344,1.346-0.749,1.828-1.176L475.09,301.617z"/>
		</g>
	</g>
	<g>
	</g>
	<g>
		<path fill="#327DD8" stroke="#327DD8" stroke-miterlimit="10" d="M391.5,232.5v28h0.105c0.469,8,20.408,17.043,44.955,17.043
			c24.546,0,44.484-9.043,44.954-17.043H481.5v-28H391.5z"/>
		<ellipse fill="#4DC3F8" stroke="#FFFFFF" stroke-miterlimit="10" cx="436.561" cy="231.773" rx="44.977" ry="17.383"/>
		<g>
			<path fill="none" d="M481.538,253.234c0,9.6-20.138,17.381-44.978,17.381s-44.977-7.781-44.977-17.381"/>
			<path fill="#FFFFFF" d="M399.041,263.168c0.043-0.744,0.086-1.856,0.086-2.849v-13.497l1.854,0.77v7.014l0.043,0.019
				c0.661-0.972,1.854-1.284,3.518-0.593c2.558,1.062,4.369,4.121,4.348,7.504c0,3.991-2.322,5.01-4.625,4.055
				c-1.492-0.619-2.686-1.738-3.453-3.533l-0.064-0.026l-0.085,1.81L399.041,263.168z M400.98,259.498
				c0,0.253,0.043,0.524,0.086,0.773c0.362,1.557,1.449,2.978,2.813,3.544c1.962,0.814,3.134-0.429,3.134-2.99
				c0-2.237-1.066-4.595-3.07-5.427c-1.278-0.531-2.473-0.081-2.855,1.305c-0.043,0.214-0.107,0.464-0.107,0.787V259.498z"/>
			<path fill="#FFFFFF" d="M411.482,251.291l1.973,0.482v16.381l-1.973-0.483V251.291z"/>
			<path fill="#FFFFFF" d="M426.793,264.671c0,4.13-2.834,5.538-5.508,5.168c-2.994-0.413-5.303-2.947-5.303-6.478
				c0-3.737,2.422-5.594,5.485-5.171C424.645,258.629,426.793,261.256,426.793,264.671z M418.016,263.573
				c0,2.446,1.395,4.483,3.361,4.756c1.92,0.265,3.359-1.358,3.359-3.873c0-1.892-0.938-4.421-3.314-4.749
				C419.045,259.378,418.016,261.451,418.016,263.573z"/>
			<path fill="#FFFFFF" d="M437.304,270.283c-0.53,0.26-1.706,0.592-3.204,0.544c-3.367-0.106-5.557-2.46-5.557-5.875
				c0-3.438,2.352-5.854,5.994-5.739c1.199,0.039,2.26,0.372,2.813,0.666l-0.461,1.555c-0.484-0.293-1.244-0.57-2.352-0.605
				c-2.559-0.082-3.942,1.767-3.942,4.097c0,2.584,1.66,4.229,3.874,4.3c1.152,0.035,1.913-0.24,2.489-0.475L437.304,270.283z"/>
			<path fill="#FFFFFF" d="M441.695,264.473l0.046-0.004c0.276-0.408,0.669-0.916,0.991-1.326l3.271-4.047l2.442-0.144l-4.309,4.845
				l4.907,6.287l-2.465,0.145l-3.848-5.125l-1.037,1.215v4.198l-2.004,0.118v-16.381l2.004-0.117V264.473z"/>
			<path fill="#FFFFFF" d="M455.141,265.77c0.605,0.182,1.998,0.455,3.391,0.129c1.775-0.416,2.674-1.504,2.674-2.635
				c0-1.477-1.438-1.809-2.943-1.455l-1.393,0.326v-2.516l1.326-0.311c1.145-0.291,2.605-1.071,2.605-2.34
				c0-0.9-0.719-1.4-2.156-1.064c-1.191,0.279-2.449,1.105-3.055,1.616l-0.697-2.374c0.877-0.783,2.629-1.747,4.516-2.189
				c3.121-0.731,4.852,0.547,4.852,2.601c0,1.592-0.877,3.043-2.674,4.11v0.046c1.752-0.087,3.168,0.942,3.168,2.903
				c0,2.652-2.27,5.123-5.975,5.991c-1.887,0.442-3.482,0.309-4.336-0.045L455.141,265.77z"/>
			<path fill="#FFFFFF" d="M475.09,262.283c-0.567,0.535-1.639,1.252-2.857,1.805c-3.32,1.507-5.442,0.256-5.442-3.298
				c0-3.299,2.06-6.933,5.884-8.669c0.84-0.381,1.764-0.639,2.437-0.668l-0.504,2.836c-0.378-0.013-0.946,0.084-1.786,0.465
				c-1.682,0.764-2.773,2.574-2.752,4.41c0,2.076,1.26,2.588,2.814,1.883c0.757-0.344,1.346-0.748,1.828-1.176L475.09,262.283z"/>
		</g>
	</g>
	<g>
		<path fill="#327DD8" stroke="#327DD8" stroke-miterlimit="10" d="M391.5,192.5v28h0.105c0.469,8,20.408,17.043,44.955,17.043
			c24.546,0,44.484-9.043,44.954-17.043H481.5v-28H391.5z"/>
		<ellipse fill="#4DC3F8" stroke="#FFFFFF" stroke-miterlimit="10" cx="436.561" cy="192.441" rx="44.977" ry="17.381"/>
		<g>
			<path fill="none" d="M481.538,213.9c0,9.6-20.138,17.383-44.978,17.383s-44.977-7.783-44.977-17.383"/>
			<path fill="#FFFFFF" d="M399.041,223.835c0.043-0.743,0.086-1.856,0.086-2.849V207.49l1.854,0.77v7.014l0.043,0.018
				c0.661-0.972,1.854-1.283,3.518-0.594c2.558,1.063,4.369,4.122,4.348,7.504c0,3.992-2.322,5.012-4.625,4.056
				c-1.492-0.62-2.686-1.737-3.453-3.533l-0.064-0.026l-0.085,1.811L399.041,223.835z M400.98,220.164
				c0,0.254,0.043,0.525,0.086,0.773c0.362,1.559,1.449,2.979,2.813,3.545c1.962,0.814,3.134-0.43,3.134-2.99
				c0-2.238-1.066-4.596-3.07-5.428c-1.278-0.53-2.473-0.08-2.855,1.307c-0.043,0.213-0.107,0.463-0.107,0.786V220.164z"/>
			<path fill="#FFFFFF" d="M411.482,211.957l1.973,0.484v16.38l-1.973-0.483V211.957z"/>
			<path fill="#FFFFFF" d="M426.793,225.338c0,4.13-2.834,5.537-5.508,5.168c-2.994-0.414-5.303-2.947-5.303-6.478
				c0-3.737,2.422-5.595,5.485-5.171C424.645,219.297,426.793,221.924,426.793,225.338z M418.016,224.24
				c0,2.445,1.395,4.484,3.361,4.756c1.92,0.266,3.359-1.358,3.359-3.873c0-1.893-0.938-4.421-3.314-4.75
				C419.045,220.045,418.016,222.117,418.016,224.24z"/>
			<path fill="#FFFFFF" d="M437.304,230.949c-0.53,0.261-1.706,0.592-3.204,0.545c-3.367-0.107-5.557-2.461-5.557-5.875
				c0-3.438,2.352-5.855,5.994-5.738c1.199,0.037,2.26,0.371,2.813,0.666l-0.461,1.554c-0.484-0.292-1.244-0.57-2.352-0.605
				c-2.559-0.081-3.942,1.767-3.942,4.097c0,2.584,1.66,4.229,3.874,4.299c1.152,0.037,1.913-0.238,2.489-0.475L437.304,230.949z"/>
			<path fill="#FFFFFF" d="M441.695,225.139l0.046-0.002c0.276-0.409,0.669-0.916,0.991-1.328l3.271-4.045l2.442-0.145l-4.309,4.846
				l4.907,6.285l-2.465,0.146l-3.848-5.126l-1.037,1.215v4.199l-2.004,0.118v-16.381l2.004-0.118V225.139z"/>
			<path fill="#FFFFFF" d="M454.533,230.017v-2.122l1.887-2.195c3.189-3.678,4.74-5.726,4.785-7.49c0-1.223-0.719-2.023-2.404-1.628
				c-1.258,0.295-2.357,1.198-3.121,1.978l-0.967-2.289c1.102-1.111,2.809-2.203,4.785-2.666c3.301-0.774,5.121,0.783,5.121,3.506
				c0,2.515-1.775,4.938-3.887,7.371l-1.348,1.469v0.047l5.504-1.29v2.884L454.533,230.017z"/>
			<path fill="#FFFFFF" d="M475.09,222.951c-0.567,0.533-1.639,1.251-2.857,1.804c-3.32,1.507-5.442,0.255-5.442-3.298
				c0-3.299,2.06-6.934,5.884-8.668c0.84-0.383,1.764-0.641,2.437-0.668l-0.504,2.836c-0.378-0.014-0.946,0.082-1.786,0.464
				c-1.682,0.763-2.773,2.574-2.752,4.41c0,2.077,1.26,2.589,2.814,1.883c0.757-0.343,1.346-0.749,1.828-1.176L475.09,222.951z"/>
		</g>
	</g>
	<g>
		<path fill="#009245" stroke="#009245" stroke-miterlimit="10" d="M391.5,153.5v28h0.105c0.469,8,20.408,17.043,44.955,17.043
			c24.546,0,44.484-9.043,44.954-17.043H481.5v-28H391.5z"/>
		<ellipse fill="#00FF00" stroke="#FFFFFF" stroke-miterlimit="10" cx="436.561" cy="153.107" rx="44.977" ry="17.382"/>
		<g>
			<path fill="none" d="M481.538,174.567c0,9.6-20.138,17.382-44.978,17.382s-44.977-7.782-44.977-17.382"/>
			<path fill="#FFFFFF" d="M396.146,175.179c0-1.43-0.041-2.605-0.082-3.688l1.619,0.839l0.082,1.958l0.041,0.021
				c0.737-0.979,1.905-1.181,3.524-0.342c2.397,1.243,4.2,4.461,4.2,7.853c0,4.014-2.172,4.873-4.508,3.662
				c-1.312-0.68-2.459-1.92-3.053-3.336l-0.041-0.021v6.067l-1.783-0.924V175.179z M397.93,179.08c0,0.3,0.041,0.598,0.082,0.873
				c0.327,1.577,1.414,3.109,2.705,3.778c1.905,0.988,3.012-0.192,3.012-2.753c0-2.238-1.045-4.694-2.951-5.682
				c-1.229-0.637-2.377-0.24-2.725,1.102c-0.063,0.222-0.123,0.49-0.123,0.767V179.08z"/>
			<path fill="#FFFFFF" d="M414.07,189.657l-0.156-1.447l-0.066-0.017c-0.604,0.723-1.767,1.211-3.309,0.819
				c-2.191-0.558-3.309-2.435-3.309-4.049c0-2.699,2.324-3.584,6.505-2.497v-0.231c0-0.923-0.246-2.646-2.459-3.21
				c-1.006-0.256-2.057-0.201-2.817,0.114l-0.446-1.452c0.894-0.372,2.19-0.434,3.554-0.087c3.309,0.842,4.113,3.377,4.113,5.615
				v4.176c0,0.969,0.045,1.926,0.18,2.722L414.07,189.657z M413.779,183.884c-2.146-0.592-4.582-0.82-4.582,1.348
				c0,1.315,0.85,2.154,1.855,2.411c1.408,0.358,2.303-0.337,2.615-1.203c0.067-0.19,0.111-0.41,0.111-0.617V183.884z"/>
			<path fill="#FFFFFF" d="M418.932,182.902c0-1.315-0.023-2.449-0.092-3.497l1.76,0.25l0.068,2.202l0.092,0.013
				c0.502-1.428,1.713-2.202,3.061-2.01c0.229,0.032,0.389,0.078,0.57,0.15v1.915c-0.205-0.076-0.41-0.128-0.686-0.167
				c-1.416-0.202-2.42,0.74-2.695,2.224c-0.045,0.271-0.091,0.587-0.091,0.933v5.953l-1.987-0.283V182.902z"/>
			<path fill="#FFFFFF" d="M428.773,177.392c0.023,0.694-0.482,1.208-1.288,1.144c-0.714-0.056-1.22-0.65-1.22-1.342
				c0-0.715,0.529-1.228,1.266-1.169C428.291,176.085,428.773,176.677,428.773,177.392z M426.52,191.518v-11.166l2.024,0.16v11.166
				L426.52,191.518z"/>
			<path fill="#FFFFFF" d="M434.342,177.553v3.207l2.907,0.062v1.546l-2.907-0.062v6.021c0,1.384,0.393,2.177,1.523,2.201
				c0.53,0.012,0.922-0.049,1.176-0.113l0.093,1.524c-0.392,0.153-1.015,0.256-1.8,0.239c-0.945-0.021-1.707-0.337-2.191-0.9
				c-0.576-0.612-0.785-1.608-0.785-2.923v-6.091l-1.73-0.037v-1.546l1.73,0.037v-2.676L434.342,177.553z"/>
			<path fill="#FFFFFF" d="M440.475,180.757l2.443,6.453c0.253,0.723,0.529,1.583,0.713,2.242l0.047-0.003
				c0.207-0.682,0.438-1.549,0.715-2.373l2.211-6.684l2.143-0.128l-3.041,8.141c-1.451,3.916-2.442,5.937-3.824,7.219
				c-0.991,0.936-1.982,1.341-2.488,1.463l-0.508-1.677c0.508-0.191,1.176-0.554,1.774-1.098c0.554-0.472,1.244-1.297,1.705-2.362
				c0.093-0.213,0.161-0.379,0.161-0.494s-0.046-0.274-0.139-0.522l-4.123-10.044L440.475,180.757z"/>
			<path fill="#FFFFFF" d="M454.975,190.622c0.045-0.749,0.09-2.121,0.09-3.39v-13.012l3.41-0.826v6.437l0.045-0.011
				c0.65-1.126,1.795-2.026,3.319-2.396c2.624-0.636,4.554,1.135,4.531,4.601c0,4.061-2.513,6.699-5.024,7.308
				c-1.279,0.31-2.512,0.124-3.297-1.024l-0.045,0.011l-0.135,1.602L454.975,190.622z M458.475,184.975
				c0,0.231,0.022,0.433,0.066,0.607c0.225,0.892,1.01,1.417,1.997,1.178c1.458-0.354,2.354-1.724,2.354-3.754
				c0-1.753-0.762-2.953-2.354-2.567c-0.919,0.223-1.772,1.145-1.997,2.214c-0.044,0.218-0.066,0.432-0.066,0.662V184.975z"/>
			<path fill="#FFFFFF" d="M472.037,173.386l-0.041,0.022l-2.529,2.697l-0.511-2.361l3.509-3.699l2.57-1.357v14.996l-2.998,1.583
				V173.386z"/>
		</g>
	</g>
</g>
<g>
	<path fill="#FFFFFF" d="M419.431,371.752c0-0.64-0.021-1.189-0.04-1.64h1.319l0.069,0.68h0.021c0.36-0.52,0.919-0.789,1.629-0.789
		c1.069,0,2.028,0.93,2.028,2.488c0,1.779-1.129,2.619-2.219,2.619c-0.589,0-1.049-0.24-1.269-0.561h-0.021v2.429h-1.519V371.752z
		 M420.949,372.901c0,0.12,0.01,0.229,0.03,0.319c0.101,0.41,0.45,0.72,0.89,0.72c0.66,0,1.049-0.55,1.049-1.379
		c0-0.779-0.35-1.369-1.029-1.369c-0.43,0-0.809,0.319-0.909,0.77c-0.021,0.08-0.03,0.18-0.03,0.27V372.901z"/>
	<path fill="#FFFFFF" d="M425.41,371.722c0-0.72-0.02-1.189-0.039-1.609h1.309l0.05,0.899h0.04c0.25-0.709,0.85-1.009,1.319-1.009
		c0.14,0,0.21,0,0.319,0.02v1.43c-0.109-0.021-0.239-0.04-0.409-0.04c-0.56,0-0.939,0.3-1.04,0.77c-0.02,0.1-0.029,0.22-0.029,0.34
		V375h-1.52V371.722z"/>
	<path fill="#FFFFFF" d="M430.299,373.041c0.051,0.63,0.67,0.93,1.38,0.93c0.52,0,0.939-0.07,1.349-0.2l0.201,1.029
		c-0.5,0.2-1.109,0.3-1.77,0.3c-1.659,0-2.609-0.959-2.609-2.488c0-1.239,0.771-2.608,2.469-2.608c1.58,0,2.18,1.229,2.18,2.438
		c0,0.26-0.03,0.489-0.051,0.6H430.299z M432.088,372.002c0-0.37-0.159-0.99-0.859-0.99c-0.639,0-0.898,0.58-0.939,0.99H432.088z"/>
	<path fill="#FFFFFF" d="M434.41,371.752c0-0.64-0.02-1.189-0.039-1.64h1.318l0.07,0.68h0.02c0.36-0.52,0.92-0.789,1.629-0.789
		c1.07,0,2.029,0.93,2.029,2.488c0,1.779-1.129,2.619-2.219,2.619c-0.59,0-1.049-0.24-1.27-0.561h-0.02v2.429h-1.52V371.752z
		 M435.93,372.901c0,0.12,0.01,0.229,0.029,0.319c0.101,0.41,0.45,0.72,0.891,0.72c0.659,0,1.049-0.55,1.049-1.379
		c0-0.779-0.35-1.369-1.029-1.369c-0.43,0-0.81,0.319-0.91,0.77c-0.02,0.08-0.029,0.18-0.029,0.27V372.901z"/>
	<path fill="#FFFFFF" d="M440.391,371.722c0-0.72-0.02-1.189-0.04-1.609h1.31l0.049,0.899h0.041c0.25-0.709,0.85-1.009,1.318-1.009
		c0.141,0,0.211,0,0.32,0.02v1.43c-0.109-0.021-0.24-0.04-0.41-0.04c-0.559,0-0.939,0.3-1.039,0.77c-0.02,0.1-0.029,0.22-0.029,0.34
		V375h-1.52V371.722z"/>
	<path fill="#FFFFFF" d="M445.279,373.041c0.051,0.63,0.67,0.93,1.379,0.93c0.521,0,0.939-0.07,1.35-0.2l0.2,1.029
		c-0.5,0.2-1.109,0.3-1.769,0.3c-1.66,0-2.609-0.959-2.609-2.488c0-1.239,0.77-2.608,2.469-2.608c1.579,0,2.179,1.229,2.179,2.438
		c0,0.26-0.03,0.489-0.05,0.6H445.279z M447.068,372.002c0-0.37-0.16-0.99-0.859-0.99c-0.64,0-0.899,0.58-0.939,0.99H447.068z"/>
	<path fill="#FFFFFF" d="M449.38,373.671c0.28,0.17,0.859,0.37,1.31,0.37c0.459,0,0.649-0.16,0.649-0.41s-0.149-0.37-0.72-0.56
		c-1.01-0.34-1.398-0.89-1.389-1.47c0-0.909,0.779-1.599,1.988-1.599c0.57,0,1.08,0.13,1.379,0.279l-0.27,1.05
		c-0.22-0.12-0.64-0.28-1.059-0.28c-0.371,0-0.58,0.15-0.58,0.4c0,0.229,0.189,0.35,0.789,0.56c0.93,0.319,1.319,0.789,1.33,1.509
		c0,0.91-0.721,1.579-2.119,1.579c-0.64,0-1.209-0.14-1.58-0.34L449.38,373.671z"/>
	<path fill="#FFFFFF" d="M453.721,373.671c0.279,0.17,0.859,0.37,1.309,0.37c0.46,0,0.65-0.16,0.65-0.41s-0.15-0.37-0.721-0.56
		c-1.009-0.34-1.398-0.89-1.389-1.47c0-0.909,0.779-1.599,1.988-1.599c0.57,0,1.08,0.13,1.38,0.279l-0.271,1.05
		c-0.219-0.12-0.639-0.28-1.059-0.28c-0.37,0-0.58,0.15-0.58,0.4c0,0.229,0.189,0.35,0.79,0.56c0.929,0.319,1.319,0.789,1.329,1.509
		c0,0.91-0.72,1.579-2.119,1.579c-0.639,0-1.209-0.14-1.579-0.34L453.721,373.671z"/>
	<path fill="#FFFFFF" d="M462.678,373.431c0,0.64,0.02,1.159,0.04,1.569h-1.319l-0.07-0.689h-0.029c-0.19,0.3-0.65,0.8-1.529,0.8
		c-0.99,0-1.719-0.62-1.719-2.129v-2.869h1.528v2.629c0,0.71,0.229,1.14,0.76,1.14c0.42,0,0.659-0.29,0.76-0.53
		c0.04-0.09,0.05-0.21,0.05-0.329v-2.909h1.529V373.431z"/>
	<path fill="#FFFFFF" d="M463.9,371.722c0-0.72-0.021-1.189-0.041-1.609h1.31l0.05,0.899h0.04c0.25-0.709,0.85-1.009,1.319-1.009
		c0.141,0,0.21,0,0.32,0.02v1.43c-0.11-0.021-0.24-0.04-0.41-0.04c-0.56,0-0.939,0.3-1.039,0.77c-0.021,0.1-0.03,0.22-0.03,0.34V375
		H463.9V371.722z"/>
	<path fill="#FFFFFF" d="M468.789,373.041c0.051,0.63,0.67,0.93,1.379,0.93c0.521,0,0.939-0.07,1.35-0.2l0.2,1.029
		c-0.5,0.2-1.109,0.3-1.769,0.3c-1.66,0-2.609-0.959-2.609-2.488c0-1.239,0.77-2.608,2.469-2.608c1.579,0,2.179,1.229,2.179,2.438
		c0,0.26-0.03,0.489-0.05,0.6H468.789z M470.578,372.002c0-0.37-0.16-0.99-0.859-0.99c-0.64,0-0.899,0.58-0.939,0.99H470.578z"/>
	<path fill="#FFFFFF" d="M472.63,374.19c0-0.54,0.37-0.93,0.899-0.93s0.89,0.38,0.89,0.93c0,0.529-0.36,0.92-0.899,0.92
		C473,375.11,472.63,374.72,472.63,374.19z"/>
	<path fill="#FFFFFF" d="M479.008,374.88c-0.27,0.12-0.779,0.22-1.359,0.22c-1.578,0-2.588-0.959-2.588-2.498
		c0-1.43,0.979-2.599,2.799-2.599c0.398,0,0.839,0.069,1.158,0.189l-0.239,1.13c-0.181-0.08-0.45-0.15-0.85-0.15
		c-0.8,0-1.319,0.57-1.31,1.369c0,0.899,0.6,1.369,1.34,1.369c0.359,0,0.639-0.06,0.869-0.149L479.008,374.88z"/>
	<path fill="#FFFFFF" d="M484.567,372.501c0,1.789-1.27,2.609-2.579,2.609c-1.429,0-2.528-0.939-2.528-2.519
		c0-1.58,1.04-2.589,2.608-2.589C483.568,370.003,484.567,371.032,484.567,372.501z M481.029,372.552c0,0.839,0.35,1.469,1,1.469
		c0.59,0,0.969-0.59,0.969-1.469c0-0.73-0.279-1.47-0.969-1.47C481.299,371.082,481.029,371.832,481.029,372.552z"/>
	<path fill="#FFFFFF" d="M485.51,371.672c0-0.609-0.02-1.13-0.039-1.56h1.279l0.069,0.66h0.03c0.209-0.31,0.639-0.77,1.479-0.77
		c0.63,0,1.13,0.319,1.34,0.829h0.02c0.18-0.25,0.4-0.449,0.63-0.59c0.271-0.159,0.569-0.239,0.93-0.239
		c0.939,0,1.649,0.659,1.649,2.118V375h-1.479v-2.658c0-0.71-0.229-1.12-0.72-1.12c-0.35,0-0.6,0.24-0.699,0.53
		c-0.041,0.109-0.061,0.27-0.061,0.39V375h-1.479v-2.738c0-0.62-0.221-1.04-0.7-1.04c-0.39,0-0.62,0.3-0.71,0.55
		c-0.05,0.12-0.06,0.26-0.06,0.38V375h-1.479V371.672z"/>
</g>
<polyline fill="none" stroke="#4D4D4D" stroke-width="5" stroke-linecap="round" stroke-linejoin="round" stroke-miterlimit="10" points="
	61.5,154 61.5,115.5 436.5,115.5 436.5,153 "/>
<line fill="none" stroke="#4D4D4D" stroke-width="5" stroke-linecap="round" stroke-linejoin="round" stroke-miterlimit="10" x1="187.5" y1="154" x2="187.5" y2="116"/>
<line fill="none" stroke="#4D4D4D" stroke-width="5" stroke-linecap="round" stroke-linejoin="round" stroke-miterlimit="10" x1="310.5" y1="154" x2="310.5" y2="116"/>
<g>
</g>
<g>
</g>
<g>
</g>
<g>
</g>
<g>
</g>
<g>
</g>
<g>
</g>
<g>
</g>
<g>
</g>
<g>
</g>
<g>
</g>
<g>
</g>
<g>
</g>
<g>
</g>
<g>
</g>
</svg>
